<?xml version="1.0" encoding="UTF-8"?>
<!DOCTYPE svg PUBLIC "-//W3C//DTD SVG 1.1//EN" "http://www.w3.org/Graphics/SVG/1.1/DTD/svg11.dtd">
<!-- Creator: CorelDRAW -->
<svg xmlns="http://www.w3.org/2000/svg" xml:space="preserve" width="6.82666in" height="6.82666in" style="shape-rendering:geometricPrecision; text-rendering:geometricPrecision; image-rendering:optimizeQuality; fill-rule:evenodd; clip-rule:evenodd"
viewBox="0 0 6.82666 6.82666"
 xmlns:xlink="http://www.w3.org/1999/xlink">
 <defs>
  <style type="text/css">
   <![CDATA[
    .fil1 {fill:#FEFEFE;fill-rule:nonzero}
    .fil0 {fill:url(#id0)}
   ]]>
  </style>
  <linearGradient id="id0" gradientUnits="userSpaceOnUse" x1="1.68784" y1="0.424697" x2="5.13882" y2="6.40196">
   <stop offset="0" style="stop-color:#444FF5"/>
   <stop offset="0.490196" style="stop-color:#21BFDB"/>
   <stop offset="1" style="stop-color:#1DABB6"/>
  </linearGradient>
 </defs>
 <g id="Layer_x0020_1">
  <metadata id="CorelCorpID_0Corel-Layer"/>
  <path class="fil0" d="M6.36936 1.70667c0.942567,1.63257 0.383209,3.72013 -1.24937,4.6627 -1.63257,0.942567 -3.72013,0.383209 -4.6627,-1.24937 -0.942567,-1.63257 -0.383209,-3.72013 1.24937,-4.6627 1.63257,-0.942567 3.72013,-0.383209 4.6627,1.24937z"/>
  <path class="fil1" d="M1.76098 1.08l2.82882 0c0.0202913,0 0.0386457,0.00829134 0.0518622,0.0216693l0.475571 0.475567 3.93701e-006 -3.93701e-006c0.0142402,0.0142323 0.0213543,0.0328976 0.0213543,0.0515551l3.93701e-006 0 0 4.04496c0,0.0402677 -0.0326457,0.0729134 -0.0729173,0.0729134l-3.3047 0c-0.0402717,0 -0.0729173,-0.0326457 -0.0729173,-0.0729134l0 -4.52083c0,-0.0402677 0.0326457,-0.0729134 0.0729173,-0.0729134zm2.79863 0.145831l-2.72571 0 0 4.375 3.15887 0 0 -3.94185 -0.433154 -0.43315z"/>
  <path class="fil1" d="M2.2891 1.82235c-0.0402717,0 -0.0729173,0.0326457 -0.0729173,0.0729134 0,0.0402717 0.0326457,0.0729173 0.0729173,0.0729173l1.71435 0c0.0402717,0 0.0729173,-0.0326457 0.0729173,-0.0729173 0,-0.0402677 -0.0326457,-0.0729134 -0.0729173,-0.0729134l-1.71435 0z"/>
  <path class="fil1" d="M2.2891 2.58138c-0.0402717,0 -0.0729173,0.0326457 -0.0729173,0.0729173 0,0.0402677 0.0326457,0.0729134 0.0729173,0.0729134l2.0688 0c0.0402717,0 0.0729173,-0.0326457 0.0729173,-0.0729134 0,-0.0402717 -0.0326457,-0.0729173 -0.0729173,-0.0729173l-2.0688 0z"/>
  <path class="fil1" d="M2.2891 3.34042c-0.0402717,0 -0.0729173,0.0326496 -0.0729173,0.0729173 0,0.0402677 0.0326457,0.0729173 0.0729173,0.0729173l2.24846 0c0.0402717,0 0.0729173,-0.0326496 0.0729173,-0.0729173 0,-0.0402677 -0.0326457,-0.0729173 -0.0729173,-0.0729173l-2.24846 0z"/>
  <path class="fil1" d="M2.2891 4.09945c-0.0402717,0 -0.0729173,0.0326496 -0.0729173,0.0729173 0,0.0402717 0.0326457,0.0729173 0.0729173,0.0729173l2.24846 0c0.0402717,0 0.0729173,-0.0326457 0.0729173,-0.0729173 0,-0.0402677 -0.0326457,-0.0729173 -0.0729173,-0.0729173l-2.24846 0z"/>
  <path class="fil1" d="M2.2891 4.85849c-0.0402717,0 -0.0729173,0.0326457 -0.0729173,0.0729173 0,0.0402677 0.0326457,0.0729134 0.0729173,0.0729134l2.24846 0c0.0402717,0 0.0729173,-0.0326457 0.0729173,-0.0729134 0,-0.0402717 -0.0326457,-0.0729173 -0.0729173,-0.0729173l-2.24846 0z"/>
  <path class="fil1" d="M4.56294 1.08l0.0268583 0c0.0202913,0 0.0386457,0.00829134 0.0518622,0.0216693l0.475571 0.475567 3.93701e-006 -3.93701e-006c0.0142362,0.0142323 0.0213543,0.0328976 0.0213543,0.0515551l3.93701e-006 0 0 0.0475906c0,0.0402717 -0.0326457,0.0729173 -0.0729173,0.0729173l-0.502736 0c-0.0402677,0 -0.0729173,-0.0326457 -0.0729173,-0.0729173l0 -0.523465c0,-0.0402677 0.0326496,-0.0729134 0.0729173,-0.0729134zm0.374299 0.523461l-0.301382 -0.301378 0 0.301378 0.301382 0z"/>
 </g>
</svg>
