<?xml version="1.0" encoding="UTF-8" standalone="no"?>
<!-- Creator: CorelDRAW -->

<svg
   xml:space="preserve"
   width="7.33333in"
   height="7.33333in"
   style="shape-rendering:geometricPrecision; text-rendering:geometricPrecision; image-rendering:optimizeQuality; fill-rule:evenodd; clip-rule:evenodd"
   viewBox="0 0 7.33333 7.33333"
   version="1.1"
   id="svg976"
   sodipodi:docname="9828060761601550441.svg"
   inkscape:version="1.1.2 (b8e25be8, 2022-02-05)"
   xmlns:inkscape="http://www.inkscape.org/namespaces/inkscape"
   xmlns:sodipodi="http://sodipodi.sourceforge.net/DTD/sodipodi-0.dtd"
   xmlns:xlink="http://www.w3.org/1999/xlink"
   xmlns="http://www.w3.org/2000/svg"
   xmlns:svg="http://www.w3.org/2000/svg"><sodipodi:namedview
   id="namedview978"
   pagecolor="#ffffff"
   bordercolor="#666666"
   borderopacity="1.0"
   inkscape:pageshadow="2"
   inkscape:pageopacity="0.0"
   inkscape:pagecheckerboard="0"
   inkscape:document-units="in"
   showgrid="false"
   inkscape:zoom="0.94602314"
   inkscape:cx="351.47132"
   inkscape:cy="351.99985"
   inkscape:window-width="1312"
   inkscape:window-height="934"
   inkscape:window-x="0"
   inkscape:window-y="25"
   inkscape:window-maximized="0"
   inkscape:current-layer="Layer_x0020_1" />
 <defs
   id="defs956"><linearGradient
   inkscape:collect="always"
   id="linearGradient1768"><stop
     style="stop-color:#383ed5;stop-opacity:1;"
     offset="0"
     id="stop1764" /><stop
     style="stop-color:#a22ac7;stop-opacity:1"
     offset="1"
     id="stop1766" /></linearGradient>
  <style
   type="text/css"
   id="style944">
   <![CDATA[
    .fil5 {fill:url(#id0)}
    .fil4 {fill:url(#id1);fill-rule:nonzero}
    .fil1 {fill:url(#id2);fill-rule:nonzero}
    .fil2 {fill:url(#id3);fill-rule:nonzero}
    .fil3 {fill:url(#id4);fill-rule:nonzero}
    .fil0 {fill:url(#id5);fill-rule:nonzero}
   ]]>
  </style>
  <linearGradient
   id="id0"
   gradientUnits="userSpaceOnUse"
   x1="-3.93701e-006"
   y1="3.66667"
   x2="7.33333"
   y2="3.66667">
   <stop
   offset="0"
   style="stop-color:#E4877C"
   id="stop946" />
   <stop
   offset="1"
   style="stop-color:#B03686"
   id="stop948" />
  </linearGradient>
  <linearGradient
   id="id1"
   gradientUnits="userSpaceOnUse"
   xlink:href="#linearGradient1768"
   x1="4.84796"
   y1="1.47382"
   x2="5.5595298"
   y2="1.47382">
  </linearGradient>
  <linearGradient
   id="id2"
   gradientUnits="userSpaceOnUse"
   xlink:href="#linearGradient1768"
   x1="2.35322"
   y1="2.0011301"
   x2="4.3941102"
   y2="2.0011301">
  </linearGradient>
  <linearGradient
   id="id3"
   gradientUnits="userSpaceOnUse"
   xlink:href="#linearGradient1768"
   x1="2.35322"
   y1="2.8339"
   x2="4.78299"
   y2="2.8339">
  </linearGradient>
  <linearGradient
   id="id4"
   gradientUnits="userSpaceOnUse"
   xlink:href="#linearGradient1768"
   x1="2.35322"
   y1="3.6666701"
   x2="4.9801102"
   y2="3.6666701">
  </linearGradient>
  <linearGradient
   id="id5"
   gradientUnits="userSpaceOnUse"
   xlink:href="#linearGradient1768"
   x1="1.7738"
   y1="3.6666701"
   x2="5.5595298"
   y2="3.6666701">
  </linearGradient>
 <linearGradient
   inkscape:collect="always"
   xlink:href="#linearGradient1768"
   id="linearGradient1770"
   x1="0"
   y1="3.666665"
   x2="7.33333"
   y2="3.666665"
   gradientUnits="userSpaceOnUse" /><linearGradient
   inkscape:collect="always"
   xlink:href="#linearGradient1768"
   id="linearGradient1994"
   gradientUnits="userSpaceOnUse"
   x1="2.35322"
   y1="3.6666701"
   x2="4.9801102"
   y2="3.6666701" /><linearGradient
   inkscape:collect="always"
   xlink:href="#linearGradient1768"
   id="linearGradient1996"
   gradientUnits="userSpaceOnUse"
   x1="2.35322"
   y1="3.6666701"
   x2="4.9801102"
   y2="3.6666701" /></defs>
 <g
   id="Layer_x0020_1"
   inkscape:label="Layer 1">
  <metadata
   id="CorelCorpID_0Corel-Layer" />
  <path
   class="fil0"
   d="M1.8538 1.10667l3.10363 0c0.0222638,0 0.0423976,0.00909843 0.0569016,0.0237756l0.521768 0.521764 3.93701e-006 -3.93701e-006c0.015622,0.0156181 0.0234291,0.0360945 0.0234291,0.0565669l3.93701e-006 0 0 4.4379c0,0.0441811 -0.0358189,0.08 -0.08,0.08l-3.62573 0c-0.0441811,0 -0.08,-0.0358189 -0.08,-0.08l0 -4.96c0,-0.0441811 0.0358189,-0.08 0.08,-0.08zm3.0705 0.16l-2.9905 0 0 4.8 3.46573 0 0 -4.32477 -0.475232 -0.475228z"
   id="path959"
   style="fill-opacity:1.0" />
  <path
   class="fil1"
   d="M2.43322 1.92113c-0.0441811,0 -0.08,0.0358189 -0.08,0.08 0,0.0441811 0.0358189,0.08 0.08,0.08l1.88089 0c0.0441811,0 0.08,-0.0358189 0.08,-0.08 0,-0.0441811 -0.0358189,-0.08 -0.08,-0.08l-1.88089 0z"
   id="path961"
   style="fill-opacity:1.0" />
  <path
   class="fil2"
   d="M2.43322 2.7539c-0.0441811,0 -0.08,0.0358189 -0.08,0.08 0,0.0441811 0.0358189,0.08 0.08,0.08l2.26977 0c0.0441811,0 0.08,-0.0358189 0.08,-0.08 0,-0.0441811 -0.0358189,-0.08 -0.08,-0.08l-2.26977 0z"
   id="path963"
   style="fill-opacity:1.0" />
  <path
   class="fil3"
   d="M2.43322 3.58667c-0.0441811,0 -0.08,0.0358189 -0.08,0.08 0,0.0441811 0.0358189,0.08 0.08,0.08l2.46689 0c0.0441811,0 0.08,-0.0358189 0.08,-0.08 0,-0.0441811 -0.0358189,-0.08 -0.08,-0.08l-2.46689 0z"
   id="path965"
   style="fill-opacity:1;fill:url(#linearGradient1994)" />
  <path
   class="fil3"
   d="M2.43322 4.41944c-0.0441811,0 -0.08,0.0358189 -0.08,0.08 0,0.0441811 0.0358189,0.08 0.08,0.08l2.46689 0c0.0441811,0 0.08,-0.0358189 0.08,-0.08 0,-0.0441811 -0.0358189,-0.08 -0.08,-0.08l-2.46689 0z"
   id="path967"
   style="fill-opacity:1;fill:url(#linearGradient1996)" />
  <path
   class="fil3"
   d="M2.43322 5.25221c-0.0441811,0 -0.08,0.0358189 -0.08,0.08 0,0.0441811 0.0358189,0.08 0.08,0.08l2.46689 0c0.0441811,0 0.08,-0.0358189 0.08,-0.08 0,-0.0441811 -0.0358189,-0.08 -0.08,-0.08l-2.46689 0z"
   id="path969"
   style="fill-opacity:1.0" />
  <path
   class="fil4"
   d="M4.92796 1.10667l0.0294685 0c0.0222638,0 0.0423976,0.00909843 0.0569016,0.0237756l0.521768 0.521764 3.93701e-006 -3.93701e-006c0.0156181,0.0156181 0.0234291,0.0360945 0.0234291,0.0565669l3.93701e-006 0 0 0.0522126c0,0.0441811 -0.0358189,0.08 -0.08,0.08l-0.551575 0c-0.0441811,0 -0.08,-0.0358189 -0.08,-0.08l0 -0.574315c0,-0.0441811 0.0358189,-0.08 0.08,-0.08zm0.410661 0.574315l-0.330661 -0.330657 0 0.330657 0.330661 0z"
   id="path971"
   style="fill-opacity:1.0" />
  <path
   class="fil5"
   d="M1.28486 0l4.76361 0c0.706677,0 1.28486,0.578185 1.28486,1.28486l0 4.76361c0,0.706677 -0.578185,1.28486 -1.28486,1.28486l-4.76361 0c-0.706677,0 -1.28486,-0.578185 -1.28486,-1.28486l0 -4.76361c0,-0.706677 0.578185,-1.28486 1.28486,-1.28486zm3.93701e-006 0.321209l4.76361 0c0.530008,0 0.96365,0.433642 0.96365,0.96365l0 4.76361c0,0.530008 -0.433642,0.96365 -0.96365,0.96365l-4.76361 0c-0.530008,0 -0.96365,-0.433642 -0.96365,-0.96365l0 -4.76361c0,-0.530008 0.433642,-0.96365 0.96365,-0.96365z"
   id="path973"
   style="fill:url(#linearGradient1770);fill-opacity:1" />
 </g>
</svg>
