<?xml version="1.0" encoding="utf-8"?>
<svg width="52px" height="12px" viewBox="0 0 52 12" version="1.1" xmlns:xlink="http://www.w3.org/1999/xlink" xmlns="http://www.w3.org/2000/svg">
  <defs>
    <path d="M0 0L399 0L399 274L0 274L0 0Z" id="path_1" />
    <path d="M6 12C9.31371 12 12 9.31371 12 6C12 2.68629 9.31371 0 6 0C2.68629 0 0 2.68629 0 6C0 9.31371 2.68629 12 6 12Z" id="path_2" />
    <clipPath id="clip_1">
      <use xlink:href="#path_2" />
    </clipPath>
    <clipPath id="mask_1">
      <use xlink:href="#path_1" />
    </clipPath>
  </defs>
  <g id="mockup4" transform="translate(-9.5 -10)">
    <path d="M0 0L399 0L399 274L0 274L0 0Z" id="Background" fill="none" fill-rule="evenodd" stroke="none" />
    <g clip-path="url(#mask_1)">
      <g id="g1363" transform="translate(13.691406 13.691902)" />
    </g>
  </g>
  <g id="ViewsWindowsWindow-ControlsWith-Title-or-Tab-Bar" transform="translate(-8 -8)">
    <g id="Traffic-Lights" transform="translate(8 8)">
      <g id="Close">
        <g id="Red">
          <use stroke="none" fill="#FF5F57" xlink:href="#path_2" fill-rule="evenodd" />
          <g clip-path="url(#clip_1)">
            <use xlink:href="#path_2" fill="none" stroke="#000000" stroke-opacity="0.2" stroke-width="1" />
          </g>
        </g>
      </g>
      <g id="Minimize" transform="translate(20 0)">
        <g id="Yellow">
          <use stroke="none" fill="#FEBC2E" xlink:href="#path_2" fill-rule="evenodd" />
          <g clip-path="url(#clip_1)">
            <use xlink:href="#path_2" fill="none" stroke="#000000" stroke-opacity="0.2" stroke-width="1" />
          </g>
        </g>
      </g>
      <g id="Zoom" transform="translate(40 0)">
        <g id="Green">
          <use stroke="none" fill="#28C840" xlink:href="#path_2" fill-rule="evenodd" />
          <g clip-path="url(#clip_1)">
            <use xlink:href="#path_2" fill="none" stroke="#000000" stroke-opacity="0.2" stroke-width="1" />
          </g>
        </g>
      </g>
    </g>
  </g>
</svg>