<?xml version="1.0" encoding="UTF-8" standalone="no"?>
<svg
   width="399"
   height="274"
   viewBox="0 0 399 274"
   fill="none"
   version="1.1"
   id="svg1390"
   sodipodi:docname="mockup4.svg"
   inkscape:version="1.1.2 (b8e25be8, 2022-02-05)"
   xmlns:inkscape="http://www.inkscape.org/namespaces/inkscape"
   xmlns:sodipodi="http://sodipodi.sourceforge.net/DTD/sodipodi-0.dtd"
   xmlns="http://www.w3.org/2000/svg"
   xmlns:svg="http://www.w3.org/2000/svg">
  <sodipodi:namedview
     id="namedview1392"
     pagecolor="#ffffff"
     bordercolor="#666666"
     borderopacity="1.0"
     inkscape:pageshadow="2"
     inkscape:pageopacity="0.0"
     inkscape:pagecheckerboard="0"
     showgrid="false"
     inkscape:zoom="2.3548312"
     inkscape:cx="34.18504"
     inkscape:cy="104.46608"
     inkscape:window-width="1312"
     inkscape:window-height="934"
     inkscape:window-x="0"
     inkscape:window-y="25"
     inkscape:window-maximized="0"
     inkscape:current-layer="g1363" />
  <g
     filter="url(#filter0_i)"
     id="g1363">
    <path
       d="M56.915 13.6919H15.8799C14.6712 13.6919 13.6914 14.6717 13.6914 15.8804V15.8804C13.6914 17.0891 14.6712 18.069 15.8799 18.069H56.915C58.1237 18.069 59.1035 17.0891 59.1035 15.8804C59.1035 14.6717 58.1237 13.6919 56.915 13.6919Z"
       fill="white"
       fill-opacity="0.6"
       id="path1135" />
    <path
       d="M26.0144 69.646C32.8202 69.646 38.3374 64.1288 38.3374 57.323C38.3374 50.5172 32.8202 45 26.0144 45C19.2086 45 13.6914 50.5172 13.6914 57.323C13.6914 64.1288 19.2086 69.646 26.0144 69.646Z"
       fill="#FF5A6D"
       id="path1137"
       style="fill:#00c8fc" />
    <path
       d="M166.702 57.2383H53.7408C52.7956 57.2383 52.0293 58.0046 52.0293 58.9498C52.0293 59.8951 52.7956 60.6613 53.7408 60.6613H166.702C167.647 60.6613 168.413 59.8951 168.413 58.9498C168.413 58.0046 167.647 57.2383 166.702 57.2383Z"
       fill="#FF5A6D"
       id="path1139"
       style="fill:#00c8fc" />
    <path
       d="M146.6 66.1382H53.42C52.652 66.1382 52.0293 66.7608 52.0293 67.5289C52.0293 68.297 52.652 68.9197 53.42 68.9197H146.6C147.368 68.9197 147.991 68.297 147.991 67.5289C147.991 66.7608 147.368 66.1382 146.6 66.1382Z"
       fill="white"
       fill-opacity="0.3"
       id="path1141" />
    <path
       d="M169.529 74.3965H53.5293C52.7009 74.3965 52.0293 75.0681 52.0293 75.8965C52.0293 76.7249 52.7009 77.3965 53.5293 77.3965H169.529C170.358 77.3965 171.029 76.7249 171.029 75.8965C171.029 75.0681 170.358 74.3965 169.529 74.3965Z"
       fill="white"
       fill-opacity="0.3"
       id="path1143" />
    <path
       d="M26.0144 133.646C32.8202 133.646 38.3374 128.129 38.3374 121.323C38.3374 114.517 32.8202 109 26.0144 109C19.2086 109 13.6914 114.517 13.6914 121.323C13.6914 128.129 19.2086 133.646 26.0144 133.646Z"
       fill="black"
       fill-opacity="0.2"
       id="path1145" />
    <path
       d="M173.548 116.566H53.7408C52.7956 116.566 52.0293 117.332 52.0293 118.277C52.0293 119.223 52.7956 119.989 53.7408 119.989H173.548C174.493 119.989 175.259 119.223 175.259 118.277C175.259 117.332 174.493 116.566 173.548 116.566Z"
       fill="black"
       fill-opacity="0.2"
       id="path1147" />
    <path
       d="M156.25 117H67.7501C59.6038 117 53 117.448 53 118C53 118.552 59.6038 119 67.7501 119H156.25C164.396 119 171 118.552 171 118C171 117.448 164.396 117 156.25 117Z"
       fill="white"
       id="path1149" />
    <path
       d="M155.529 125.466H53.5293C52.7009 125.466 52.0293 126.137 52.0293 126.966C52.0293 127.794 52.7009 128.466 53.5293 128.466H155.529C156.358 128.466 157.029 127.794 157.029 126.966C157.029 126.137 156.358 125.466 155.529 125.466Z"
       fill="white"
       fill-opacity="0.3"
       id="path1151" />
    <path
       d="M116.529 133.942H53.5293C52.7009 133.942 52.0293 134.613 52.0293 135.442C52.0293 136.27 52.7009 136.942 53.5293 136.942H116.529C117.358 136.942 118.029 136.27 118.029 135.442C118.029 134.613 117.358 133.942 116.529 133.942Z"
       fill="white"
       fill-opacity="0.3"
       id="path1153" />
    <path
       d="M116.529 142.419H53.5293C52.7009 142.419 52.0293 143.091 52.0293 143.919C52.0293 144.747 52.7009 145.419 53.5293 145.419H116.529C117.358 145.419 118.029 144.747 118.029 143.919C118.029 143.091 117.358 142.419 116.529 142.419Z"
       fill="white"
       fill-opacity="0.3"
       id="path1155" />
    <path
       d="M26.0144 201.646C32.8202 201.646 38.3374 196.129 38.3374 189.323C38.3374 182.517 32.8202 177 26.0144 177C19.2086 177 13.6914 182.517 13.6914 189.323C13.6914 196.129 19.2086 201.646 26.0144 201.646Z"
       fill="black"
       fill-opacity="0.2"
       id="path1157" />
    <path
       d="M161.529 201.747H53.5293C52.7009 201.747 52.0293 202.419 52.0293 203.247C52.0293 204.075 52.7009 204.747 53.5293 204.747H161.529C162.358 204.747 163.029 204.075 163.029 203.247C163.029 202.419 162.358 201.747 161.529 201.747Z"
       fill="white"
       fill-opacity="0.3"
       id="path1159" />
    <path
       d="M111.529 210.224H53.5293C52.7009 210.224 52.0293 210.896 52.0293 211.724C52.0293 212.553 52.7009 213.224 53.5293 213.224H111.529C112.358 213.224 113.029 212.553 113.029 211.724C113.029 210.896 112.358 210.224 111.529 210.224Z"
       fill="white"
       fill-opacity="0.3"
       id="path1161" />
    <path
       d="M378.413 13.6919H227.799C224.018 13.6919 220.953 16.757 220.953 20.538V253.306C220.953 257.087 224.018 260.152 227.799 260.152H378.413C382.194 260.152 385.259 257.087 385.259 253.306V20.538C385.259 16.757 382.194 13.6919 378.413 13.6919Z"
       fill="white"
       id="path1163" />
    <path
       d="M378.413 13.6919H227.799C224.018 13.6919 220.953 16.757 220.953 20.538V253.306C220.953 257.087 224.018 260.152 227.799 260.152H378.413C382.194 260.152 385.259 257.087 385.259 253.306V20.538C385.259 16.757 382.194 13.6919 378.413 13.6919Z"
       fill="#007AFF"
       id="path1165" />
    <path
       opacity="0.43"
       d="M251.419 87.7725C246.638 92.357 242.881 100.521 245.714 105.178C247.321 107.82 250.577 108.556 261.7 109.143C282.232 110.226 297.819 109.123 299.252 109.017C313.646 107.95 311.397 107.498 321.31 107.01C332.522 106.458 337.641 106.926 346.28 104.84C353.222 103.164 357.231 102.196 361.216 98.7299C370.077 91.021 369.864 78.7468 369.828 76.7197C369.78 73.9378 369.239 64.3628 362.173 56.6235C351.528 44.9654 331.596 43.5163 321.023 51.3602C308.643 60.5453 316.158 77.234 304.994 83.1792C295.138 88.4284 285.456 77.4555 263.553 81.9262C260.297 82.5909 255.504 83.8554 251.419 87.7725Z"
       fill="#491EB8"
       id="path1167" />
    <path
       opacity="0.2"
       d="M244.74 120.905C243.251 120.905 242.045 120.546 241.232 119.622C238.916 116.988 240.446 110.437 244.207 106.877C248.279 103.025 253.997 103.844 263.469 105.203C266.752 105.674 270.473 106.207 274.729 106.632C284.013 107.558 293.639 107.715 303.339 107.098C303.39 107.095 303.432 107.133 303.435 107.183C303.438 107.232 303.4 107.275 303.351 107.278C293.641 107.895 284.005 107.738 274.711 106.811C270.451 106.386 266.728 105.852 263.444 105.381C254.025 104.031 248.339 103.215 244.331 107.008C240.631 110.509 239.107 116.932 241.368 119.503C243.379 121.791 248.004 120.447 253.36 118.891C254.82 118.467 256.329 118.028 257.856 117.643C269.348 114.743 276.044 116.394 282.521 117.991C288.327 119.422 294.332 120.902 303.854 119.248C313.588 117.556 319.743 113.922 325.173 110.715C331.477 106.993 336.456 104.053 344.324 106.055C348.443 107.103 351.485 109.061 353.93 110.634C356.97 112.589 359.371 114.133 362.261 113.03C365.046 111.967 367.227 108.838 368.402 104.219C369.461 100.059 369.593 94.9686 368.756 90.6025C366.291 77.7467 353.702 69.3551 343.109 67.9864C336.781 67.1683 333.124 69.0535 328.89 71.2361C324.914 73.2854 320.407 75.6083 312.767 75.9759C304.818 76.3588 300.038 74.3589 294.974 72.2424C290.525 70.3832 285.926 68.4605 278.885 68.1469C278.836 68.1445 278.797 68.1026 278.8 68.0528C278.802 68.0044 278.841 67.9667 278.889 67.9667C278.891 67.9667 278.892 67.9667 278.894 67.9669C285.966 68.282 290.58 70.2109 295.043 72.0761C300.088 74.1845 304.853 76.175 312.758 75.7961C320.359 75.4301 324.847 73.1168 328.807 71.0759C333.068 68.8798 336.749 66.9833 343.132 67.8075C353.788 69.1844 366.452 77.6295 368.933 90.5688C369.775 94.9595 369.641 100.079 368.577 104.263C367.387 108.941 365.167 112.114 362.326 113.198C359.349 114.335 356.915 112.768 353.833 110.785C351.272 109.138 348.37 107.271 344.28 106.23C336.483 104.246 331.532 107.169 325.265 110.871C319.821 114.085 313.651 117.728 303.885 119.425C294.326 121.087 288.302 119.602 282.478 118.166C275.725 116.501 269.348 114.929 257.9 117.818C256.377 118.202 254.869 118.64 253.411 119.064C250.105 120.024 247.074 120.905 244.74 120.905Z"
       fill="#76F7FF"
       id="path1169" />
    <path
       d="M330.985 98.9289C339.74 98.9289 346.837 91.8319 346.837 83.0771C346.837 74.3223 339.74 67.2251 330.985 67.2251C322.23 67.2251 315.133 74.3223 315.133 83.0771C315.133 91.8319 322.23 98.9289 330.985 98.9289Z"
       fill="#B3CAF8"
       id="path1171" />
    <path
       d="M340.796 97.8101H316.93V114.525H340.796V97.8101Z"
       fill="#76F7FF"
       id="path1173" />
    <path
       opacity="0.43"
       d="M293.265 71.8172C298.339 71.8172 302.453 67.7036 302.453 62.6291C302.453 57.5546 298.339 53.4409 293.265 53.4409C288.19 53.4409 284.076 57.5546 284.076 62.6291C284.076 67.7036 288.19 71.8172 293.265 71.8172Z"
       fill="#76F7FF"
       id="path1175" />
    <path
       d="M300.071 115.351C298.487 115.351 297.199 114.073 297.188 112.487C297.177 110.895 298.459 109.595 300.051 109.584L310.759 109.512L311.5 96.7374C311.592 95.1476 312.952 93.9317 314.546 94.0262C316.135 94.1184 317.349 95.4818 317.257 97.0717L316.456 110.862C316.314 113.318 314.276 115.254 311.816 115.271L300.091 115.351C300.084 115.351 300.077 115.351 300.071 115.351Z"
       fill="#B3825D"
       id="path1177"
       style="fill:#ccaca0;fill-opacity:1" />
    <path
       d="m 329.39978,115.30798 c -1.539,0 -2.816,-1.216 -2.878,-2.768 -0.064,-1.592 1.174,-2.933 2.765,-2.997 l 10.303,-0.412 v -12.1727 c 0,-1.5924 1.29,-2.8833 2.883,-2.8833 1.592,0 2.883,1.2909 2.883,2.8833 v 12.8697 c 0,2.716 -2.126,4.928 -4.84,5.037 l -10.998,0.44 c -0.039,0.002 -0.078,0.003 -0.118,0.003 z"
       fill="#B3825D"
       id="path1179"
       style="fill:#d7bea8;fill-opacity:1" />
    <path
       d="M363.359 118.12H247.876C247.03 118.12 246.344 117.434 246.344 116.588C246.344 115.742 247.03 115.056 247.876 115.056H363.359C364.205 115.056 364.891 115.742 364.891 116.588C364.891 117.434 364.205 118.12 363.359 118.12Z"
       fill="#18204D"
       id="path1181" />
    <path
       d="M310.82 100.366C310.82 89.9122 318.217 85.3501 327.856 85.3501C337.495 85.3501 345.725 89.9122 345.725 100.366"
       fill="#76F7FF"
       id="path1183" />
    <path
       d="M324.023 72.4354C324.779 72.4354 325.392 71.8223 325.392 71.066C325.392 70.3098 324.779 69.6968 324.023 69.6968C323.267 69.6968 322.654 70.3098 322.654 71.066C322.654 71.8223 323.267 72.4354 324.023 72.4354Z"
       fill="#F05936"
       id="path1185" />
    <path
       d="M331.662 72.4354C332.418 72.4354 333.031 71.8223 333.031 71.066C333.031 70.3098 332.418 69.6968 331.662 69.6968C330.906 69.6968 330.293 70.3098 330.293 71.066C330.293 71.8223 330.906 72.4354 331.662 72.4354Z"
       fill="#F05936"
       id="path1187" />
    <path
       d="M331.659 76.2125V87.7179C331.659 89.803 329.968 91.4933 327.883 91.4933C325.798 91.4933 324.107 89.803 324.107 87.7179V76.2125C324.107 75.432 324.343 74.7072 324.749 74.1056C325.427 73.0987 326.578 72.4365 327.883 72.4365C328.926 72.4365 329.869 72.8591 330.553 73.5425C331.236 74.2259 331.659 75.1697 331.659 76.2125Z"
       fill="#B3825D"
       id="path1189"
       style="fill:#d4b7a2;fill-opacity:1" />
    <path
       d="M331.658 74.5088L331.038 78.6569C331.038 80.7167 330.227 83.4596 328.233 83.6449C324.555 83.9869 324.107 81.9546 324.107 79.8693V72.4019C324.848 71.395 326.105 70.7329 327.532 70.7329C328.672 70.7329 329.703 71.1554 330.45 71.8388C331.196 72.5223 331.658 73.466 331.658 74.5088Z"
       fill="#303030"
       id="path1191" />
    <path
       d="M328.096 82.8947H327.669C325.702 82.8947 324.107 81.2997 324.107 79.3323V69.4921C324.107 67.5247 325.702 65.9297 327.669 65.9297H328.096C330.063 65.9297 331.658 67.5247 331.658 69.4921V79.3323C331.658 81.2997 330.063 82.8947 328.096 82.8947Z"
       fill="#B3825D"
       id="path4940"
       style="fill:#d0b39a;fill-opacity:1" />
    <path
       d="M324.645 68.4521L331.155 68.4283C332.528 68.4227 332.642 63.6898 330.361 64.2572L329.932 64.5236C329.407 64.1522 328.779 63.9539 328.137 63.9566L324.627 63.9784C323.601 63.9826 322.773 64.8175 322.777 65.8434C322.781 66.8693 323.619 68.4562 324.645 68.4521Z"
       fill="#76F7FF"
       id="path1195"
       style="fill:#000000" />
    <path
       d="M325.575 71.7824C325.773 71.7824 325.934 71.622 325.934 71.4241C325.934 71.2263 325.773 71.0659 325.575 71.0659C325.378 71.0659 325.217 71.2263 325.217 71.4241C325.217 71.622 325.378 71.7824 325.575 71.7824Z"
       fill="#303030"
       id="path1197" />
    <path
       d="M328.766 71.7824C328.964 71.7824 329.124 71.622 329.124 71.4241C329.124 71.2263 328.964 71.0659 328.766 71.0659C328.568 71.0659 328.408 71.2263 328.408 71.4241C328.408 71.622 328.568 71.7824 328.766 71.7824Z"
       fill="#303030"
       id="path1199" />
    <path
       d="M326.997 76.6159C326.879 76.6159 326.759 76.5749 326.654 76.4958C326.478 76.3643 326.356 76.1448 326.335 75.9224C326.304 75.5972 326.427 75.2933 326.547 74.9994L326.58 74.9169C326.907 74.1003 327.098 73.2411 327.148 72.3628L327.327 72.3729C327.277 73.2706 327.082 74.1491 326.747 74.9837L326.714 75.0672C326.602 75.341 326.487 75.6239 326.514 75.9055C326.53 76.0759 326.627 76.2512 326.761 76.3515C326.828 76.401 326.933 76.454 327.06 76.4297L327.095 76.6065C327.063 76.6129 327.03 76.6159 326.997 76.6159Z"
       fill="#303030"
       id="path1201" />
    <path
       d="M326.952 78.7466C326.738 78.7466 326.585 78.7117 326.572 78.7083L326.613 78.533C326.619 78.5344 327.277 78.6829 327.748 78.3276C328.049 78.101 328.214 77.7159 328.239 77.1836L328.419 77.192C328.391 77.7813 328.201 78.2121 327.856 78.4724C327.56 78.6949 327.211 78.7466 326.952 78.7466Z"
       fill="#303030"
       id="path1203" />
    <path
       d="M327.953 92.3814C327.833 92.3814 327.758 92.3767 327.743 92.3757C327.634 92.3682 327.552 92.2737 327.559 92.1645C327.567 92.0555 327.658 91.9723 327.77 91.9805C327.79 91.9812 329.81 92.1024 331.19 90.8119C332.062 89.9974 332.504 88.7933 332.504 87.2333C332.504 87.1237 332.592 87.0352 332.702 87.0352C332.811 87.0352 332.9 87.1237 332.9 87.2333C332.9 88.9092 332.415 90.2115 331.458 91.104C330.207 92.2713 328.537 92.3814 327.953 92.3814Z"
       fill="#B3CAF8"
       id="path1205" />
    <path
       d="M362.558 113.239L351.236 113.223L351.234 114.941L362.556 114.956L362.558 113.239Z"
       fill="#B3CAF8"
       id="path1207" />
    <path
       d="M361.227 111.519L349.906 111.503L349.904 113.221L361.225 113.236L361.227 111.519Z"
       fill="#18204D"
       id="path1209" />
    <path
       d="M362.942 109.803L351.621 109.788L351.619 111.505L362.94 111.521L362.942 109.803Z"
       fill="#76F7FF"
       id="path1211" />
    <path
       d="M298.331 114.798H291.416C291.416 113.661 292.337 112.74 293.474 112.74H296.273C297.41 112.74 298.331 113.661 298.331 114.798Z"
       fill="#76F7FF"
       id="path1213" />
    <path
       d="M356.42 119.07H260.065C259.834 119.07 259.646 118.883 259.646 118.651C259.646 118.42 259.834 118.233 260.065 118.233H356.42C356.651 118.233 356.839 118.42 356.839 118.651C356.839 118.883 356.651 119.07 356.42 119.07Z"
       fill="#B3CAF8"
       id="path1215" />
    <path
       d="M325.928 70.1816L324.002 70.6456L324.044 70.8208L325.97 70.3568L325.928 70.1816Z"
       fill="#303030"
       id="path1219" />
    <path
       d="M328.325 70.1816L328.283 70.3568L330.209 70.8202L330.251 70.6449L328.325 70.1816Z"
       fill="#303030"
       id="path1221" />
    <path
       d="M330.236 69.1838C330.286 69.1838 330.326 69.1436 330.326 69.0939C330.326 69.0441 330.286 69.0039 330.236 69.0039C330.187 69.0039 330.146 69.0441 330.146 69.0939C330.146 69.1436 330.187 69.1838 330.236 69.1838Z"
       fill="#76F7FF"
       id="path1223" />
    <path
       d="M330.146 68.7904C330.196 68.7904 330.237 68.7501 330.237 68.7003C330.237 68.6506 330.196 68.6104 330.146 68.6104C330.097 68.6104 330.057 68.6506 330.057 68.7003C330.057 68.7501 330.097 68.7904 330.146 68.7904Z"
       fill="#76F7FF"
       id="path1225" />
    <path
       d="M329.473 68.7904C329.522 68.7904 329.563 68.7501 329.563 68.7003C329.563 68.6506 329.522 68.6104 329.473 68.6104C329.423 68.6104 329.383 68.6506 329.383 68.7003C329.383 68.7501 329.423 68.7904 329.473 68.7904Z"
       fill="#76F7FF"
       id="path1227" />
    <path
       d="M329.807 68.7904C329.856 68.7904 329.897 68.7501 329.897 68.7003C329.897 68.6506 329.856 68.6104 329.807 68.6104C329.757 68.6104 329.717 68.6506 329.717 68.7003C329.717 68.7501 329.757 68.7904 329.807 68.7904Z"
       fill="#76F7FF"
       id="path1229" />
    <path
       d="M331.207 68.7904C331.257 68.7904 331.297 68.7501 331.297 68.7003C331.297 68.6506 331.257 68.6104 331.207 68.6104C331.158 68.6104 331.117 68.6506 331.117 68.7003C331.117 68.7501 331.158 68.7904 331.207 68.7904Z"
       fill="#76F7FF"
       id="path1231" />
    <path
       d="M330.535 68.7904C330.585 68.7904 330.625 68.7501 330.625 68.7003C330.625 68.6506 330.585 68.6104 330.535 68.6104C330.486 68.6104 330.445 68.6506 330.445 68.7003C330.445 68.7501 330.486 68.7904 330.535 68.7904Z"
       fill="#76F7FF"
       id="path1233" />
    <path
       d="M330.87 68.7904C330.92 68.7904 330.961 68.7501 330.961 68.7003C330.961 68.6506 330.92 68.6104 330.87 68.6104C330.821 68.6104 330.781 68.6506 330.781 68.7003C330.781 68.7501 330.821 68.7904 330.87 68.7904Z"
       fill="#76F7FF"
       id="path1235" />
    <path
       d="M331.317 69.101C331.367 69.101 331.407 69.0607 331.407 69.0111C331.407 68.9613 331.367 68.9209 331.317 68.9209C331.267 68.9209 331.227 68.9613 331.227 69.0111C331.227 69.0607 331.267 69.101 331.317 69.101Z"
       fill="#76F7FF"
       id="path1237" />
    <path
       d="M330.61 69.1811C330.659 69.1811 330.7 69.1407 330.7 69.0909C330.7 69.0414 330.659 69.001 330.61 69.001C330.56 69.001 330.52 69.0414 330.52 69.0909C330.52 69.1407 330.56 69.1811 330.61 69.1811Z"
       fill="#76F7FF"
       id="path1239" />
    <path
       d="M330.983 69.1838C331.033 69.1838 331.073 69.1436 331.073 69.0939C331.073 69.0441 331.033 69.0039 330.983 69.0039C330.933 69.0039 330.893 69.0441 330.893 69.0939C330.893 69.1436 330.933 69.1838 330.983 69.1838Z"
       fill="#76F7FF"
       id="path1241" />
    <path
       d="M331.363 69.4338C331.413 69.4338 331.453 69.3936 331.453 69.3439C331.453 69.2941 331.413 69.2539 331.363 69.2539C331.314 69.2539 331.273 69.2941 331.273 69.3439C331.273 69.3936 331.314 69.4338 331.363 69.4338Z"
       fill="#76F7FF"
       id="path1243" />
    <path
       d="M330.623 69.5241C330.673 69.5241 330.713 69.4839 330.713 69.4341C330.713 69.3844 330.673 69.3442 330.623 69.3442C330.574 69.3442 330.533 69.3844 330.533 69.4341C330.533 69.4839 330.574 69.5241 330.623 69.5241Z"
       fill="#76F7FF"
       id="path1245" />
    <path
       d="M331.033 69.5168C331.083 69.5168 331.124 69.4766 331.124 69.4269C331.124 69.3771 331.083 69.3369 331.033 69.3369C330.984 69.3369 330.943 69.3771 330.943 69.4269C330.943 69.4766 330.984 69.5168 331.033 69.5168Z"
       fill="#76F7FF"
       id="path1247" />
    <path
       d="M331.386 69.7757C331.436 69.7757 331.477 69.7355 331.477 69.6857C331.477 69.636 331.436 69.5957 331.386 69.5957C331.337 69.5957 331.297 69.636 331.297 69.6857C331.297 69.7355 331.337 69.7757 331.386 69.7757Z"
       fill="#76F7FF"
       id="path1249" />
    <path
       d="M331.059 69.8601C331.109 69.8601 331.149 69.8199 331.149 69.7701C331.149 69.7204 331.109 69.6802 331.059 69.6802C331.01 69.6802 330.969 69.7204 330.969 69.7701C330.969 69.8199 331.01 69.8601 331.059 69.8601Z"
       fill="#76F7FF"
       id="path1251" />
    <path
       d="M331.418 70.1189C331.467 70.1189 331.508 70.0786 331.508 70.029C331.508 69.9792 331.467 69.939 331.418 69.939C331.368 69.939 331.328 69.9792 331.328 70.029C331.328 70.0786 331.368 70.1189 331.418 70.1189Z"
       fill="#76F7FF"
       id="path1253" />
    <path
       d="M331.084 70.2033C331.133 70.2033 331.174 70.1631 331.174 70.1133C331.174 70.0636 331.133 70.0234 331.084 70.0234C331.034 70.0234 330.994 70.0636 330.994 70.1133C330.994 70.1631 331.034 70.2033 331.084 70.2033Z"
       fill="#76F7FF"
       id="path1255" />
    <path
       d="M331.418 70.4643C331.467 70.4643 331.508 70.4239 331.508 70.3741C331.508 70.3246 331.467 70.2842 331.418 70.2842C331.368 70.2842 331.328 70.3246 331.328 70.3741C331.328 70.4239 331.368 70.4643 331.418 70.4643Z"
       fill="#76F7FF"
       id="path1257" />
    <path
       d="M331.084 70.5467C331.133 70.5467 331.174 70.5063 331.174 70.4567C331.174 70.407 331.133 70.3667 331.084 70.3667C331.034 70.3667 330.994 70.407 330.994 70.4567C330.994 70.5063 331.034 70.5467 331.084 70.5467Z"
       fill="#76F7FF"
       id="path1259" />
    <path
       d="M331.418 70.8073C331.467 70.8073 331.508 70.7671 331.508 70.7174C331.508 70.6676 331.467 70.6274 331.418 70.6274C331.368 70.6274 331.328 70.6676 331.328 70.7174C331.328 70.7671 331.368 70.8073 331.418 70.8073Z"
       fill="#76F7FF"
       id="path1261" />
    <path
       d="M331.084 70.8993C331.133 70.8993 331.174 70.8589 331.174 70.8093C331.174 70.7596 331.133 70.7192 331.084 70.7192C331.034 70.7192 330.994 70.7596 330.994 70.8093C330.994 70.8589 331.034 70.8993 331.084 70.8993Z"
       fill="#76F7FF"
       id="path1263" />
    <path
       d="M331.418 71.1584C331.467 71.1584 331.508 71.1182 331.508 71.0685C331.508 71.0187 331.467 70.9785 331.418 70.9785C331.368 70.9785 331.328 71.0187 331.328 71.0685C331.328 71.1182 331.368 71.1584 331.418 71.1584Z"
       fill="#76F7FF"
       id="path1265" />
    <path
       d="M331.084 71.2502C331.133 71.2502 331.174 71.21 331.174 71.1602C331.174 71.1106 331.133 71.0703 331.084 71.0703C331.034 71.0703 330.994 71.1106 330.994 71.1602C330.994 71.21 331.034 71.2502 331.084 71.2502Z"
       fill="#76F7FF"
       id="path1267" />
    <path
       d="M245.925 71.2583L285.186 72.6293C285.633 72.6448 286.273 73.1263 286.613 73.7033L288.229 76.441L288.384 76.4465L286.77 73.7086C286.365 73.0222 285.601 72.4484 285.068 72.4297L245.808 71.0586C245.276 71.0401 245.172 71.5839 245.577 72.2702L247.192 75.008L247.347 75.0133L245.732 72.2757C245.391 71.6987 245.479 71.2428 245.925 71.2583Z"
       fill="#B3CAF8"
       id="path1269" />
    <path
       fill-rule="evenodd"
       clip-rule="evenodd"
       d="M285.228 72.4511C285.171 72.439 285.117 72.4318 285.064 72.4299L245.803 71.0588C245.438 71.0461 245.275 71.2989 245.34 71.6809C245.37 71.855 245.447 72.0556 245.573 72.2704L247.189 75.0081L247.343 75.0134L245.728 72.2758C245.713 72.2514 245.7 72.2272 245.687 72.2033C245.578 72.0001 245.523 71.8146 245.52 71.6626C245.515 71.409 245.654 71.2491 245.921 71.2585L285.182 72.6294C285.188 72.6298 285.195 72.6301 285.201 72.6305C285.647 72.6589 286.274 73.1347 286.61 73.7034L288.225 76.4412L288.381 76.4467L286.765 73.7089C286.751 73.6848 286.736 73.661 286.721 73.6374C286.349 73.0496 285.724 72.5581 285.228 72.4511ZM245.915 71.4392L285.176 72.8102C285.346 72.8162 285.582 72.9158 285.827 73.1005C286.068 73.2817 286.296 73.5289 286.454 73.7953L288.119 76.6185L288.704 76.6389L286.921 73.617C286.705 73.2516 286.397 72.9192 286.071 72.6745C285.751 72.4331 285.391 72.2603 285.071 72.2491L245.81 70.878C245.646 70.8724 245.496 70.9095 245.377 70.9996C245.257 71.0903 245.187 71.2209 245.159 71.3665C245.106 71.6484 245.205 72.0025 245.417 72.3623L247.083 75.1854L247.667 75.2056L245.884 72.1839C245.723 71.912 245.684 71.7006 245.707 71.5789C245.718 71.5228 245.74 71.492 245.764 71.4742C245.789 71.4553 245.834 71.4365 245.915 71.4392Z"
       fill="#B3CAF8"
       id="path1271" />
    <path
       d="M304.668 104.05L303.627 102.286L292.653 83.6881L290.638 80.2731L290.483 80.2676L292.498 83.6826L303.471 102.28L304.512 104.044C304.852 104.62 304.766 105.077 304.319 105.062L265.058 103.691C264.612 103.675 263.97 103.192 263.631 102.617L263.103 101.722L259.775 96.0814L259.142 95.0088L255.814 89.3698L254.944 87.8953L251.616 82.255L249.601 78.84L249.447 78.8345L251.462 82.2495L254.79 87.8899L255.66 89.3643L258.987 95.0033L259.62 96.0759L262.948 101.716L263.476 102.611C263.881 103.298 264.644 103.872 265.176 103.89L304.437 105.261C304.97 105.28 305.073 104.736 304.668 104.05Z"
       fill="#B3CAF8"
       id="path1273" />
    <path
       fill-rule="evenodd"
       clip-rule="evenodd"
       d="M290.746 80.0952L292.812 83.5957L304.826 103.958C305.038 104.317 305.138 104.671 305.084 104.953C305.056 105.099 304.986 105.23 304.866 105.32C304.747 105.41 304.596 105.447 304.433 105.442L265.172 104.071C264.852 104.06 264.493 103.887 264.172 103.645C263.847 103.401 263.538 103.068 263.323 102.703L259.466 96.1673L251.308 82.3411L249.125 78.6416L249.709 78.6622L255.102 87.8029L259.3 94.9164L263.261 101.63L263.789 102.524C263.946 102.79 264.174 103.037 264.416 103.219C264.661 103.404 264.897 103.504 265.067 103.509L304.328 104.881C304.409 104.883 304.454 104.864 304.479 104.846C304.502 104.828 304.525 104.797 304.535 104.741C304.558 104.619 304.519 104.407 304.359 104.136L290.162 80.0747L290.746 80.0952ZM304.514 104.044C304.529 104.069 304.543 104.093 304.556 104.117C304.663 104.317 304.717 104.5 304.722 104.651C304.729 104.908 304.591 105.071 304.321 105.061L265.06 103.69C265.054 103.69 265.048 103.69 265.042 103.689C264.597 103.661 263.968 103.184 263.633 102.616L249.604 78.8395L249.449 78.834L263.478 102.611C263.492 102.635 263.507 102.658 263.522 102.682C263.894 103.27 264.52 103.762 265.016 103.869C265.072 103.881 265.126 103.888 265.178 103.89L304.439 105.261C304.808 105.274 304.971 105.017 304.902 104.631C304.872 104.459 304.795 104.261 304.67 104.049L290.641 80.2726L290.485 80.2671L304.514 104.044Z"
       fill="#B3CAF8"
       id="path1275" />
    <path
       d="M331.418 71.511C331.467 71.511 331.508 71.4706 331.508 71.421C331.508 71.3713 331.467 71.3311 331.418 71.3311C331.368 71.3311 331.328 71.3713 331.328 71.421C331.328 71.4706 331.368 71.511 331.418 71.511Z"
       fill="#76F7FF"
       id="path1277" />
    <path
       d="M330.701 69.8675C330.75 69.8675 330.791 69.8273 330.791 69.7775C330.791 69.7278 330.75 69.6875 330.701 69.6875C330.651 69.6875 330.611 69.7278 330.611 69.7775C330.611 69.8273 330.651 69.8675 330.701 69.8675Z"
       fill="#76F7FF"
       id="path1279" />
    <path
       d="M290.295 115.077H284.6L280.289 107.278L285.983 107.522L290.295 115.077Z"
       fill="#B3CAF8"
       id="path1281" />
    <path
       opacity="0.2"
       d="M289.645 114.025L284.094 114.066L283.188 112.508L288.739 112.467L289.645 114.025Z"
       fill="#303030"
       id="path1283" />
    <path
       d="M299.462 115.077H275.32V114.944C275.32 114.459 275.713 114.067 276.197 114.067H298.585C299.069 114.067 299.462 114.459 299.462 114.944V115.077Z"
       fill="#B3CAF8"
       id="path1285" />
    <path
       d="M240.192 74.7624L247.191 75.0068L247.345 75.0123L248.156 75.0405L287.417 76.4116L288.227 76.4398L288.383 76.4453L290.976 76.5359C291.794 76.5644 292.964 77.444 293.588 78.5012C294.211 79.5572 294.052 80.3916 293.234 80.363L290.641 80.2725L290.485 80.267L289.675 80.2387L250.414 78.8676L249.603 78.8394L249.449 78.8339L242.45 78.5895C241.631 78.5609 240.461 77.6802 239.838 76.6242C239.215 75.567 239.373 74.7338 240.192 74.7624Z"
       fill="#76F7FF"
       id="path1287" />
    <path
       d="M291.69 83.6556L275.125 83.0771L286.098 101.675L302.664 102.253L303.474 102.282L292.501 83.6838L291.69 83.6556Z"
       fill="#76F7FF"
       id="path1289" />
    <path
       d="M296.734 83.8303L292.465 83.6812L303.439 102.279L307.707 102.428L296.734 83.8303Z"
       fill="#76F7FF"
       id="path1291" />
    <path
       d="M242.879 81.9976L246.207 87.6379L256.022 87.934L252.694 82.2937L242.879 81.9976Z"
       fill="#76F7FF"
       id="path1293" />
    <path
       d="M272.063 82.969L252.426 82.2832L251.615 82.2549L254.943 87.8951L255.754 87.9235L275.392 88.6093L272.063 82.969Z"
       fill="#76F7FF"
       id="path1295" />
    <path
       d="M333.634 115.295H308.242V114.76C308.242 114.205 308.692 113.755 309.247 113.755H332.629C333.184 113.755 333.634 114.205 333.634 114.76V115.295Z"
       fill="#76F7FF"
       id="path1297" />
    <path
       d="M316.634 138.381H251.677C249.955 138.381 248.559 136.986 248.559 135.264V123.832C248.559 122.11 249.955 120.715 251.677 120.715H316.634C318.356 120.715 319.751 122.11 319.751 123.832V135.264C319.751 136.986 318.356 138.381 316.634 138.381Z"
       fill="#B3CAF8"
       id="path1299" />
    <path
       d="M363.036 138.381H325.109C323.388 138.381 321.992 136.986 321.992 135.264V123.832C321.992 122.11 323.388 120.715 325.109 120.715H363.036C364.757 120.715 366.153 122.11 366.153 123.832V135.264C366.153 136.986 364.757 138.381 363.036 138.381Z"
       fill="#B3CAF8"
       id="path1301" />
    <path
       d="M368.576 129.74H247.261C246.554 129.74 245.979 129.165 245.979 128.457C245.979 127.75 246.554 127.175 247.261 127.175H368.576C369.283 127.175 369.859 127.75 369.859 128.457C369.859 129.165 369.283 129.74 368.576 129.74ZM247.261 127.56C246.767 127.56 246.364 127.963 246.364 128.457C246.364 128.952 246.767 129.354 247.261 129.354H368.576C369.071 129.354 369.473 128.952 369.473 128.457C369.473 127.963 369.071 127.56 368.576 127.56H247.261Z"
       fill="#76F7FF"
       id="path1303" />
    <path
       d="M274.599 85.4396C274.565 85.4396 274.532 85.4203 274.517 85.3872L274.329 84.9778C274.308 84.9326 274.328 84.8791 274.373 84.8584C274.418 84.8376 274.472 84.8572 274.492 84.9025L274.681 85.3117C274.701 85.3571 274.682 85.4105 274.636 85.4314C274.624 85.437 274.611 85.4396 274.599 85.4396Z"
       fill="#303030"
       id="path1305" />
    <path
       d="M274.037 84.2173C274.004 84.2173 273.971 84.198 273.956 84.1648L273.582 83.353C273.561 83.3078 273.581 83.2542 273.626 83.2335C273.671 83.2128 273.725 83.2323 273.746 83.2777L274.119 84.0895C274.14 84.1348 274.12 84.1882 274.075 84.2089C274.063 84.2146 274.05 84.2173 274.037 84.2173ZM273.291 82.5936C273.257 82.5936 273.224 82.5743 273.209 82.5412L272.835 81.7294C272.815 81.6841 272.834 81.6307 272.88 81.61C272.924 81.5889 272.978 81.6088 272.999 81.6541L273.373 82.4659C273.393 82.5111 273.374 82.5647 273.328 82.5854C273.316 82.591 273.303 82.5936 273.291 82.5936ZM272.544 80.97C272.51 80.97 272.477 80.9507 272.462 80.9175L272.089 80.1057C272.068 80.0605 272.088 80.007 272.133 79.9863C272.178 79.9659 272.231 79.9851 272.252 80.0304L272.626 80.8422C272.646 80.8875 272.627 80.9409 272.582 80.9618C272.569 80.9673 272.557 80.97 272.544 80.97ZM271.797 79.3463C271.763 79.3463 271.73 79.327 271.715 79.2939L271.342 78.4822C271.321 78.437 271.341 78.3834 271.386 78.3627C271.431 78.3418 271.485 78.3613 271.506 78.4069L271.879 79.2186C271.9 79.2638 271.88 79.3174 271.835 79.3381C271.823 79.3437 271.81 79.3463 271.797 79.3463ZM271.05 77.7226C271.016 77.7226 270.984 77.7032 270.969 77.6702L270.595 76.8583C270.575 76.8131 270.594 76.7595 270.639 76.7388C270.684 76.7178 270.738 76.7376 270.759 76.783L271.132 77.5947C271.153 77.6401 271.133 77.6935 271.088 77.7144C271.076 77.72 271.063 77.7226 271.05 77.7226ZM270.304 76.0989C270.27 76.0989 270.237 76.0795 270.222 76.0465L269.848 75.2347C269.828 75.1895 269.847 75.136 269.892 75.1153C269.937 75.0942 269.991 75.1141 270.012 75.1594L270.385 75.9712C270.406 76.0164 270.386 76.0699 270.341 76.0907C270.329 76.0963 270.316 76.0989 270.304 76.0989ZM269.557 74.4753C269.523 74.4753 269.49 74.456 269.475 74.4229L269.102 73.611C269.081 73.5658 269.101 73.5124 269.146 73.4915C269.19 73.4712 269.244 73.4903 269.265 73.5357L269.639 74.3476C269.66 74.3928 269.64 74.4462 269.595 74.4671C269.582 74.4727 269.57 74.4753 269.557 74.4753ZM268.81 72.8518C268.776 72.8518 268.743 72.8323 268.728 72.7992L268.355 71.9874C268.334 71.9423 268.354 71.8887 268.399 71.868C268.444 71.8471 268.497 71.8668 268.518 71.9121L268.892 72.7239C268.913 72.7691 268.893 72.8227 268.848 72.8434C268.836 72.849 268.823 72.8518 268.81 72.8518ZM268.063 71.228C268.029 71.228 267.997 71.2087 267.982 71.1757L267.608 70.3637C267.587 70.3185 267.607 70.2651 267.652 70.2443C267.697 70.2234 267.751 70.2431 267.772 70.2884L268.145 71.1004C268.166 71.1455 268.146 71.1989 268.101 71.2198C268.089 71.2255 268.076 71.228 268.063 71.228ZM267.316 69.6045C267.282 69.6045 267.25 69.5851 267.235 69.5519L266.861 68.7402C266.841 68.695 266.86 68.6414 266.906 68.6207C266.951 68.6003 267.004 68.6195 267.025 68.6649L267.398 69.4766C267.419 69.5218 267.399 69.5754 267.354 69.5961C267.342 69.6017 267.329 69.6045 267.316 69.6045ZM266.57 67.9808C266.536 67.9808 266.503 67.9614 266.488 67.9284L266.114 67.1166C266.094 67.0713 266.113 67.0179 266.159 66.997C266.203 66.9764 266.257 66.9958 266.278 67.0413L266.652 67.8531C266.672 67.8983 266.653 67.9518 266.607 67.9725C266.595 67.9782 266.582 67.9808 266.57 67.9808ZM265.823 66.3572C265.789 66.3572 265.756 66.3379 265.741 66.3047L265.368 65.4927C265.347 65.4475 265.367 65.394 265.412 65.3733C265.457 65.3524 265.511 65.3721 265.532 65.4174L265.905 66.2294C265.926 66.2747 265.906 66.3281 265.86 66.3488C265.848 66.3545 265.835 66.3572 265.823 66.3572ZM265.076 64.7333C265.042 64.7333 265.01 64.714 264.994 64.6809L264.621 63.8692C264.6 63.8238 264.62 63.7704 264.665 63.7495C264.71 63.7287 264.764 63.7483 264.785 63.7939L265.158 64.6056C265.179 64.6508 265.159 64.7044 265.114 64.7251C265.102 64.7307 265.089 64.7333 265.076 64.7333ZM264.33 63.1098C264.295 63.1098 264.263 63.0904 264.248 63.0572L264.082 62.6971C264.006 62.5323 263.965 62.3587 263.961 62.1813C263.959 62.1315 263.999 62.09 264.049 62.0888C264.098 62.0947 264.14 62.127 264.141 62.1766C264.145 62.3296 264.18 62.4794 264.245 62.6218L264.411 62.9819C264.432 63.0273 264.412 63.0807 264.367 63.1015C264.355 63.107 264.342 63.1098 264.33 63.1098ZM264.345 61.446C264.324 61.446 264.303 61.439 264.286 61.4246C264.249 61.3921 264.244 61.3353 264.276 61.2974C264.487 61.0498 264.78 60.8909 265.101 60.8497C265.149 60.8418 265.195 60.8781 265.201 60.9277C265.208 60.977 265.173 61.0222 265.123 61.0285C264.847 61.064 264.595 61.2011 264.413 61.4143C264.396 61.4352 264.37 61.446 264.345 61.446ZM291.919 61.019H291.025C290.975 61.019 290.935 60.9787 290.935 60.9289C290.935 60.8791 290.975 60.8389 291.025 60.8389H291.919C291.969 60.8389 292.009 60.8791 292.009 60.9289C292.009 60.9787 291.969 61.019 291.919 61.019ZM290.132 61.019H289.238C289.188 61.019 289.148 60.9787 289.148 60.9289C289.148 60.8791 289.188 60.8389 289.238 60.8389H290.132C290.181 60.8389 290.222 60.8791 290.222 60.9289C290.222 60.9787 290.181 61.019 290.132 61.019ZM288.344 61.019H287.451C287.401 61.019 287.361 60.9787 287.361 60.9289C287.361 60.8791 287.401 60.8389 287.451 60.8389H288.344C288.394 60.8389 288.435 60.8791 288.435 60.9289C288.435 60.9787 288.394 61.019 288.344 61.019ZM286.557 61.019H285.664C285.614 61.019 285.574 60.9787 285.574 60.9289C285.574 60.8791 285.614 60.8389 285.664 60.8389H286.557C286.607 60.8389 286.647 60.8791 286.647 60.9289C286.647 60.9787 286.607 61.019 286.557 61.019ZM284.77 61.019H283.876C283.827 61.019 283.786 60.9787 283.786 60.9289C283.786 60.8791 283.827 60.8389 283.876 60.8389H284.77C284.82 60.8389 284.86 60.8791 284.86 60.9289C284.86 60.9787 284.82 61.019 284.77 61.019ZM282.983 61.019H282.089C282.04 61.019 281.999 60.9787 281.999 60.9289C281.999 60.8791 282.04 60.8389 282.089 60.8389H282.983C283.033 60.8389 283.073 60.8791 283.073 60.9289C283.073 60.9787 283.033 61.019 282.983 61.019ZM281.196 61.019H280.302C280.252 61.019 280.212 60.9787 280.212 60.9289C280.212 60.8791 280.252 60.8389 280.302 60.8389H281.196C281.246 60.8389 281.286 60.8791 281.286 60.9289C281.286 60.9787 281.246 61.019 281.196 61.019ZM279.409 61.019H278.515C278.465 61.019 278.425 60.9787 278.425 60.9289C278.425 60.8791 278.465 60.8389 278.515 60.8389H279.409C279.459 60.8389 279.499 60.8791 279.499 60.9289C279.499 60.9787 279.459 61.019 279.409 61.019ZM277.622 61.019H276.728C276.678 61.019 276.638 60.9787 276.638 60.9289C276.638 60.8791 276.678 60.8389 276.728 60.8389H277.622C277.671 60.8389 277.712 60.8791 277.712 60.9289C277.712 60.9787 277.671 61.019 277.622 61.019ZM275.834 61.019H274.941C274.891 61.019 274.851 60.9787 274.851 60.9289C274.851 60.8791 274.891 60.8389 274.941 60.8389H275.834C275.884 60.8389 275.924 60.8791 275.924 60.9289C275.924 60.9787 275.884 61.019 275.834 61.019ZM274.047 61.019H273.154C273.104 61.019 273.064 60.9787 273.064 60.9289C273.064 60.8791 273.104 60.8389 273.154 60.8389H274.047C274.097 60.8389 274.137 60.8791 274.137 60.9289C274.137 60.9787 274.097 61.019 274.047 61.019ZM272.26 61.019H271.366C271.317 61.019 271.276 60.9787 271.276 60.9289C271.276 60.8791 271.317 60.8389 271.366 60.8389H272.26C272.31 60.8389 272.35 60.8791 272.35 60.9289C272.35 60.9787 272.31 61.019 272.26 61.019ZM270.473 61.019H269.579C269.529 61.019 269.489 60.9787 269.489 60.9289C269.489 60.8791 269.529 60.8389 269.579 60.8389H270.473C270.523 60.8389 270.563 60.8791 270.563 60.9289C270.563 60.9787 270.523 61.019 270.473 61.019ZM268.686 61.019H267.792C267.742 61.019 267.702 60.9787 267.702 60.9289C267.702 60.8791 267.742 60.8389 267.792 60.8389H268.686C268.736 60.8389 268.776 60.8791 268.776 60.9289C268.776 60.9787 268.736 61.019 268.686 61.019ZM266.899 61.019H266.005C265.955 61.019 265.915 60.9787 265.915 60.9289C265.915 60.8791 265.955 60.8389 266.005 60.8389H266.899C266.948 60.8389 266.989 60.8791 266.989 60.9289C266.989 60.9787 266.948 61.019 266.899 61.019Z"
       fill="#303030"
       id="path1307" />
    <path
       d="M293.266 61.019H292.815C292.765 61.019 292.725 60.9787 292.725 60.9289C292.725 60.8791 292.765 60.8389 292.815 60.8389H293.266C293.316 60.8389 293.356 60.8791 293.356 60.9289C293.356 60.9787 293.316 61.019 293.266 61.019Z"
       fill="#303030"
       id="path1309" />
    <path
       d="M276.728 86.6715C276.953 86.1074 276.441 85.3726 275.583 85.0307C274.725 84.6886 273.848 84.8686 273.623 85.4329C273.398 85.997 273.911 86.7318 274.768 87.0737C275.626 87.4159 276.503 87.2358 276.728 86.6715Z"
       fill="#303030"
       id="path1311" />
    <path
       d="M293.787 62.4719C292.89 62.4719 292.141 61.7811 292.118 60.932C292.108 60.5353 292.256 60.1581 292.536 59.87C292.839 59.5587 293.255 59.3872 293.708 59.3872C294.605 59.3872 295.353 60.078 295.376 60.9271C295.387 61.324 295.239 61.701 294.958 61.9892C294.655 62.3006 294.239 62.4719 293.787 62.4719ZM293.708 59.5674C293.304 59.5674 292.934 59.7194 292.666 59.9957C292.419 60.2486 292.289 60.5793 292.298 60.9271C292.319 61.6796 292.987 62.2917 293.787 62.2917C294.19 62.2917 294.561 62.1397 294.829 61.8634C295.075 61.6106 295.206 61.2798 295.196 60.932C295.176 60.1795 294.508 59.5674 293.708 59.5674Z"
       fill="#303030"
       id="path1313" />
    <path
       d="M293.747 61.6401C294.14 61.6401 294.457 61.3223 294.457 60.9302C294.457 60.5382 294.14 60.2202 293.747 60.2202C293.355 60.2202 293.037 60.5382 293.037 60.9302C293.037 61.3223 293.355 61.6401 293.747 61.6401Z"
       fill="#76F7FF"
       id="path1315" />
    <path
       d="M295.245 64.3072H286.585C286.501 64.3072 286.434 64.2396 286.434 64.1561C286.434 64.0725 286.501 64.0049 286.585 64.0049H295.245C295.328 64.0049 295.396 64.0725 295.396 64.1561C295.396 64.2396 295.328 64.3072 295.245 64.3072Z"
       fill="#76F7FF"
       id="path1317" />
    <path
       d="M295.245 65.1931H286.585C286.501 65.1931 286.434 65.1254 286.434 65.0419C286.434 64.9582 286.501 64.8906 286.585 64.8906H295.245C295.328 64.8906 295.396 64.9582 295.396 65.0419C295.396 65.1254 295.328 65.1931 295.245 65.1931Z"
       fill="#76F7FF"
       id="path1319" />
    <path
       d="M259.895 95.0035L256.567 89.3645L254.658 89.3296L257.985 94.9686L259.895 95.0035Z"
       fill="#18204D"
       id="path1325" />
    <path
       d="M259.955 95.0373L264.639 95.2009L261.312 89.562L256.628 89.3984L255.818 89.3701L259.145 95.0091L259.955 95.0373Z"
       fill="#18204D"
       id="path1327" />
    <path
       d="M258.617 96.041L261.945 101.681L263.468 101.716L260.14 96.0761L258.617 96.041Z"
       fill="#18204D"
       id="path1329" />
    <path
       d="M279.59 95.7234L276.263 90.0845L269.611 89.8521L272.938 95.491L279.59 95.7234Z"
       fill="#18204D"
       id="path1331" />
    <path
       d="M272.115 95.4612L268.787 89.822L262.135 89.5898L265.463 95.2289L272.115 95.4612Z"
       fill="#18204D"
       id="path1333" />
    <path
       d="M253.831 89.3009L247.178 89.0684L250.505 94.7076L257.159 94.9398L253.831 89.3009Z"
       fill="#18204D"
       id="path1335" />
    <path
       d="M280.224 96.7957L273.572 96.5635L276.899 102.204L283.552 102.436L280.224 96.7957Z"
       fill="#18204D"
       id="path1337" />
    <path
       d="M266.096 96.3027L269.424 101.943L276.076 102.176L272.748 96.5349L266.096 96.3027Z"
       fill="#18204D"
       id="path1339" />
    <path
       d="M260.591 96.1094L259.781 96.0811L263.109 101.722L263.919 101.75L268.603 101.914L265.275 96.2728L260.591 96.1094Z"
       fill="#18204D"
       id="path1341" />
    <path
       d="M251.141 95.7803L254.469 101.421L261.122 101.653L257.794 96.0127L251.141 95.7803Z"
       fill="#18204D"
       id="path1343" />
    <path
       opacity="0.160784"
       d="M302.794 103.283L302.14 102.175L286.894 76.3359L285.666 74.255C285.309 73.6498 284.639 73.1458 284.17 73.1295L246.609 71.8178C246.14 71.8014 246.048 72.2787 246.405 72.8839L247.633 74.9648L249.891 78.7921L251.906 82.2071L255.234 87.8474L256.104 89.3219L259.543 95.1503L260.064 96.0335L263.392 101.674L263.533 101.912C263.89 102.517 264.561 103.021 265.03 103.038L302.591 104.349C303.06 104.366 303.151 103.888 302.794 103.283Z"
       fill="#18204D"
       id="path1345" />
    <path
       d="M362.037 150.613H244.037C242.656 150.613 241.537 151.732 241.537 153.113C241.537 154.494 242.656 155.613 244.037 155.613H362.037C363.418 155.613 364.537 154.494 364.537 153.113C364.537 151.732 363.418 150.613 362.037 150.613Z"
       fill="white"
       fill-opacity="0.6"
       id="path1347" />
    <path
       d="M334.037 167.613H272.037C270.656 167.613 269.537 168.732 269.537 170.113C269.537 171.494 270.656 172.613 272.037 172.613H334.037C335.418 172.613 336.537 171.494 336.537 170.113C336.537 168.732 335.418 167.613 334.037 167.613Z"
       fill="white"
       fill-opacity="0.6"
       id="path1349" />
    <path
       d="M349.627 184.613H256.447C255.679 184.613 255.057 185.235 255.057 186.004C255.057 186.772 255.679 187.394 256.447 187.394H349.627C350.395 187.394 351.018 186.772 351.018 186.004C351.018 185.235 350.395 184.613 349.627 184.613Z"
       fill="white"
       fill-opacity="0.3"
       id="path1351" />
    <path
       fill-rule="evenodd"
       clip-rule="evenodd"
       d="M360.614 49.2903C366.664 49.2903 371.568 44.3861 371.568 38.3365C371.568 32.2869 366.664 27.3828 360.614 27.3828C354.564 27.3828 349.66 32.2869 349.66 38.3365C349.66 44.3861 354.564 49.2903 360.614 49.2903Z"
       fill="#18204D"
       id="path1357" />
    <path
       d="M363.992 37.8018L360.08 41.7132L361.682 43.3151L365.594 39.4037L363.992 37.8018Z"
       fill="#FFE458"
       id="path1359" />
    <path
       fill-rule="evenodd"
       clip-rule="evenodd"
       d="M355.77 34.0719L359.068 37.3696C359.065 37.3939 359.064 37.4187 359.064 37.4438C359.064 37.8081 359.359 38.1035 359.723 38.1035C360.088 38.1035 360.383 37.8081 360.383 37.4438C360.383 37.0794 360.088 36.7841 359.723 36.7841C359.698 36.7841 359.673 36.7855 359.648 36.7883L356.354 33.4941L362.212 34.6027H362.217L363.283 38.5162L360.793 41.0057L356.88 39.9352L355.77 34.0719Z"
       fill="#B5CDFB"
       id="path1361" />
  </g>
  <path
     d="M56.2643 46.4227H55.3116V49H53.5516V41.6993H56.4247C57.2905 41.6993 57.9674 41.8915 58.4555 42.2759C58.9435 42.6603 59.1876 43.2035 59.1876 43.9055C59.1876 44.4136 59.0839 44.8348 58.8767 45.1691C58.6728 45.5034 58.3519 45.7742 57.9139 45.9814L59.4383 48.9248V49H57.5529L56.2643 46.4227ZM55.3116 45.0638H56.4247C56.759 45.0638 57.0097 44.9769 57.1769 44.8031C57.3473 44.6259 57.4326 44.3802 57.4326 44.066C57.4326 43.7518 57.3473 43.5061 57.1769 43.3289C57.0064 43.1484 56.7557 43.0581 56.4247 43.0581H55.3116V45.0638ZM62.7978 49.1003C61.9655 49.1003 61.2919 48.8529 60.7771 48.3582C60.2623 47.8601 60.0049 47.2133 60.0049 46.4177V46.2773C60.0049 45.7224 60.1068 45.2326 60.3108 44.8081C60.518 44.3836 60.8189 44.056 61.2133 43.8253C61.6078 43.5913 62.0758 43.4743 62.6173 43.4743C63.3795 43.4743 63.9812 43.7117 64.4224 44.1863C64.8637 44.6577 65.0843 45.3162 65.0843 46.1619V46.8188H61.7248C61.7849 47.123 61.917 47.362 62.1209 47.5358C62.3248 47.7097 62.5889 47.7966 62.9131 47.7966C63.448 47.7966 63.8658 47.6094 64.1667 47.235L64.9389 48.1476C64.7283 48.4384 64.4291 48.6707 64.0413 48.8446C63.6569 49.015 63.2424 49.1003 62.7978 49.1003ZM62.6073 44.778C62.1125 44.778 61.8184 45.1056 61.7248 45.7608H63.4296V45.6304C63.4363 45.3597 63.3678 45.1507 63.224 45.0037C63.0803 44.8532 62.8747 44.778 62.6073 44.778ZM68.6093 47.4757C68.6093 47.3319 68.5341 47.2166 68.3837 47.1297C68.2332 47.0428 67.9474 46.9525 67.5262 46.8589C67.105 46.7653 66.7574 46.6433 66.4833 46.4929C66.2092 46.3391 66.0002 46.1536 65.8565 45.9363C65.7128 45.719 65.6409 45.47 65.6409 45.1892C65.6409 44.6911 65.8465 44.2816 66.2576 43.9607C66.6688 43.6364 67.207 43.4743 67.8722 43.4743C68.5876 43.4743 69.1625 43.6364 69.5971 43.9607C70.0317 44.2849 70.249 44.7112 70.249 45.2393H68.5542C68.5542 44.8048 68.3252 44.5875 67.8672 44.5875C67.69 44.5875 67.5413 44.6376 67.4209 44.7379C67.3006 44.8348 67.2404 44.9569 67.2404 45.1039C67.2404 45.2544 67.314 45.3764 67.4611 45.47C67.6081 45.5636 67.8421 45.6405 68.163 45.7006C68.4873 45.7608 68.7714 45.8327 69.0155 45.9162C69.8311 46.197 70.2389 46.7001 70.2389 47.4255C70.2389 47.9203 70.0183 48.3231 69.5771 48.634C69.1391 48.9448 68.5709 49.1003 67.8722 49.1003C67.4076 49.1003 66.9931 49.0167 66.6287 48.8496C66.2643 48.6824 65.9802 48.4551 65.7763 48.1676C65.5724 47.8802 65.4704 47.5776 65.4704 47.2601H67.0499C67.0566 47.5108 67.1401 47.6946 67.3006 47.8116C67.4611 47.9253 67.6666 47.9821 67.9173 47.9821C68.148 47.9821 68.3202 47.9353 68.4338 47.8417C68.5508 47.7481 68.6093 47.6261 68.6093 47.4757ZM76.0705 46.3274C76.0705 47.1698 75.88 47.8434 75.4989 48.3481C75.1211 48.8496 74.6097 49.1003 73.9645 49.1003C73.4664 49.1003 73.0569 48.9181 72.736 48.5537V51.0859H71.0462V43.5746H72.6257L72.6759 44.076C73.0001 43.6749 73.4263 43.4743 73.9545 43.4743C74.623 43.4743 75.1429 43.7217 75.5139 44.2164C75.885 44.7078 76.0705 45.3847 76.0705 46.2472V46.3274ZM74.3807 46.2221C74.3807 45.2594 74.0999 44.778 73.5383 44.778C73.1372 44.778 72.8697 44.9218 72.736 45.2092V47.3453C72.8831 47.6462 73.1539 47.7966 73.5483 47.7966C74.0865 47.7966 74.364 47.3319 74.3807 46.4026V46.2221ZM76.607 46.2372C76.607 45.6956 76.7123 45.2143 76.9229 44.7931C77.1335 44.3685 77.436 44.0426 77.8305 43.8153C78.2249 43.588 78.6879 43.4743 79.2194 43.4743C80.0317 43.4743 80.6719 43.7267 81.1399 44.2315C81.6079 44.7329 81.8419 45.4165 81.8419 46.2823V46.3425C81.8419 47.1882 81.6062 47.8601 81.1349 48.3582C80.6669 48.8529 80.0317 49.1003 79.2295 49.1003C78.4573 49.1003 77.8372 48.8696 77.3692 48.4083C76.9012 47.9437 76.6488 47.3152 76.612 46.523L76.607 46.2372ZM78.2968 46.3425C78.2968 46.8439 78.3754 47.2116 78.5325 47.4456C78.6896 47.6796 78.9219 47.7966 79.2295 47.7966C79.8312 47.7966 80.1387 47.3336 80.1521 46.4076V46.2372C80.1521 45.2644 79.8412 44.778 79.2194 44.778C78.6545 44.778 78.3486 45.1975 78.3018 46.0366L78.2968 46.3425ZM84.1384 43.5746L84.1936 44.2114C84.5679 43.72 85.0844 43.4743 85.7429 43.4743C86.3079 43.4743 86.7291 43.6431 87.0065 43.9808C87.2873 44.3184 87.4327 44.8265 87.4428 45.5051V49H85.748V45.5753C85.748 45.3012 85.6928 45.1006 85.5825 44.9736C85.4722 44.8432 85.2716 44.778 84.9808 44.778C84.6498 44.778 84.4041 44.9084 84.2437 45.1691V49H82.5539V43.5746H84.1384ZM91.2235 47.4757C91.2235 47.3319 91.1483 47.2166 90.9979 47.1297C90.8474 47.0428 90.5616 46.9525 90.1404 46.8589C89.7192 46.7653 89.3716 46.6433 89.0975 46.4929C88.8234 46.3391 88.6144 46.1536 88.4707 45.9363C88.327 45.719 88.2551 45.47 88.2551 45.1892C88.2551 44.6911 88.4607 44.2816 88.8718 43.9607C89.283 43.6364 89.8212 43.4743 90.4864 43.4743C91.2018 43.4743 91.7767 43.6364 92.2113 43.9607C92.6459 44.2849 92.8632 44.7112 92.8632 45.2393H91.1684C91.1684 44.8048 90.9394 44.5875 90.4814 44.5875C90.3042 44.5875 90.1555 44.6376 90.0351 44.7379C89.9148 44.8348 89.8546 44.9569 89.8546 45.1039C89.8546 45.2544 89.9282 45.3764 90.0752 45.47C90.2223 45.5636 90.4563 45.6405 90.7772 45.7006C91.1015 45.7608 91.3856 45.8327 91.6297 45.9162C92.4453 46.197 92.8531 46.7001 92.8531 47.4255C92.8531 47.9203 92.6325 48.3231 92.1913 48.634C91.7533 48.9448 91.1851 49.1003 90.4864 49.1003C90.0218 49.1003 89.6073 49.0167 89.2429 48.8496C88.8785 48.6824 88.5944 48.4551 88.3905 48.1676C88.1866 47.8802 88.0846 47.5776 88.0846 47.2601H89.6641C89.6708 47.5108 89.7543 47.6946 89.9148 47.8116C90.0752 47.9253 90.2808 47.9821 90.5315 47.9821C90.7622 47.9821 90.9344 47.9353 91.048 47.8417C91.165 47.7481 91.2235 47.6261 91.2235 47.4757ZM95.4305 49H93.7356V43.5746H95.4305V49ZM93.6354 42.1756C93.6354 41.9349 93.7223 41.7377 93.8961 41.5839C94.0699 41.4302 94.2956 41.3533 94.573 41.3533C94.8505 41.3533 95.0761 41.4302 95.2499 41.5839C95.4238 41.7377 95.5107 41.9349 95.5107 42.1756C95.5107 42.4163 95.4238 42.6135 95.2499 42.7673C95.0761 42.9211 94.8505 42.998 94.573 42.998C94.2956 42.998 94.0699 42.9211 93.8961 42.7673C93.7223 42.6135 93.6354 42.4163 93.6354 42.1756ZM98.6396 46.9893L99.497 43.5746H101.277L99.507 49H97.7821L96.0121 43.5746H97.7972L98.6396 46.9893ZM104.336 49.1003C103.503 49.1003 102.83 48.8529 102.315 48.3582C101.8 47.8601 101.543 47.2133 101.543 46.4177V46.2773C101.543 45.7224 101.645 45.2326 101.849 44.8081C102.056 44.3836 102.357 44.056 102.751 43.8253C103.146 43.5913 103.614 43.4743 104.155 43.4743C104.917 43.4743 105.519 43.7117 105.96 44.1863C106.402 44.6577 106.622 45.3162 106.622 46.1619V46.8188H103.263C103.323 47.123 103.455 47.362 103.659 47.5358C103.863 47.7097 104.127 47.7966 104.451 47.7966C104.986 47.7966 105.404 47.6094 105.705 47.235L106.477 48.1476C106.266 48.4384 105.967 48.6707 105.579 48.8446C105.195 49.015 104.78 49.1003 104.336 49.1003ZM104.145 44.778C103.65 44.778 103.356 45.1056 103.263 45.7608H104.968V45.6304C104.974 45.3597 104.906 45.1507 104.762 45.0037C104.618 44.8532 104.413 44.778 104.145 44.778ZM115.598 46.2773L116.435 41.6993H118.18L116.631 49H114.805L113.828 44.8382L112.87 49H111.05L109.495 41.6993H111.245L112.083 46.2773L113.086 41.6993H114.58L115.598 46.2773ZM121.254 49.1003C120.421 49.1003 119.748 48.8529 119.233 48.3582C118.718 47.8601 118.461 47.2133 118.461 46.4177V46.2773C118.461 45.7224 118.563 45.2326 118.767 44.8081C118.974 44.3836 119.275 44.056 119.669 43.8253C120.064 43.5913 120.532 43.4743 121.073 43.4743C121.835 43.4743 122.437 43.7117 122.878 44.1863C123.32 44.6577 123.54 45.3162 123.54 46.1619V46.8188H120.181C120.241 47.123 120.373 47.362 120.577 47.5358C120.781 47.7097 121.045 47.7966 121.369 47.7966C121.904 47.7966 122.322 47.6094 122.623 47.235L123.395 48.1476C123.184 48.4384 122.885 48.6707 122.497 48.8446C122.113 49.015 121.698 49.1003 121.254 49.1003ZM121.063 44.778C120.568 44.778 120.274 45.1056 120.181 45.7608H121.886V45.6304C121.892 45.3597 121.824 45.1507 121.68 45.0037C121.536 44.8532 121.331 44.778 121.063 44.778ZM129.261 46.3324C129.261 47.2216 129.078 47.9052 128.71 48.3832C128.342 48.8613 127.824 49.1003 127.156 49.1003C126.604 49.1003 126.159 48.8813 125.822 48.4434L125.752 49H124.237V41.2981H125.927V44.0108C126.241 43.6532 126.647 43.4743 127.145 43.4743C127.821 43.4743 128.342 43.7167 128.71 44.2014C129.078 44.6861 129.261 45.368 129.261 46.2472V46.3324ZM127.567 46.2271C127.567 45.7056 127.496 45.3346 127.356 45.114C127.219 44.89 127.007 44.778 126.719 44.778C126.338 44.778 126.074 44.9234 125.927 45.2143V47.3704C126.071 47.6579 126.338 47.8016 126.729 47.8016C127.127 47.8016 127.379 47.6077 127.486 47.2199C127.54 47.0294 127.567 46.6985 127.567 46.2271ZM132.646 49V41.6993H134.998C135.643 41.6993 136.223 41.8464 136.738 42.1405C137.253 42.4314 137.654 42.8442 137.941 43.379C138.232 43.9106 138.379 44.5072 138.382 45.1691V45.5051C138.382 46.1736 138.24 46.7737 137.956 47.3052C137.675 47.8334 137.278 48.2479 136.763 48.5487C136.251 48.8462 135.68 48.9967 135.048 49H132.646ZM134.406 43.0581V47.6462H135.018C135.523 47.6462 135.91 47.4673 136.181 47.1096C136.452 46.7486 136.587 46.2138 136.587 45.5051V45.1892C136.587 44.4838 136.452 43.9523 136.181 43.5947C135.91 43.237 135.516 43.0581 134.998 43.0581H134.406ZM141.832 49.1003C141 49.1003 140.326 48.8529 139.811 48.3582C139.297 47.8601 139.039 47.2133 139.039 46.4177V46.2773C139.039 45.7224 139.141 45.2326 139.345 44.8081C139.552 44.3836 139.853 44.056 140.248 43.8253C140.642 43.5913 141.11 43.4743 141.652 43.4743C142.414 43.4743 143.016 43.7117 143.457 44.1863C143.898 44.6577 144.119 45.3162 144.119 46.1619V46.8188H140.759C140.819 47.123 140.951 47.362 141.155 47.5358C141.359 47.7097 141.623 47.7966 141.947 47.7966C142.482 47.7966 142.9 47.6094 143.201 47.235L143.973 48.1476C143.763 48.4384 143.463 48.6707 143.076 48.8446C142.691 49.015 142.277 49.1003 141.832 49.1003ZM141.642 44.778C141.147 44.778 140.853 45.1056 140.759 45.7608H142.464V45.6304C142.471 45.3597 142.402 45.1507 142.258 45.0037C142.115 44.8532 141.909 44.778 141.642 44.778ZM147.644 47.4757C147.644 47.3319 147.568 47.2166 147.418 47.1297C147.268 47.0428 146.982 46.9525 146.561 46.8589C146.139 46.7653 145.792 46.6433 145.518 46.4929C145.244 46.3391 145.035 46.1536 144.891 45.9363C144.747 45.719 144.675 45.47 144.675 45.1892C144.675 44.6911 144.881 44.2816 145.292 43.9607C145.703 43.6364 146.241 43.4743 146.907 43.4743C147.622 43.4743 148.197 43.6364 148.631 43.9607C149.066 44.2849 149.283 44.7112 149.283 45.2393H147.589C147.589 44.8048 147.36 44.5875 146.902 44.5875C146.724 44.5875 146.576 44.6376 146.455 44.7379C146.335 44.8348 146.275 44.9569 146.275 45.1039C146.275 45.2544 146.348 45.3764 146.495 45.47C146.642 45.5636 146.876 45.6405 147.197 45.7006C147.522 45.7608 147.806 45.8327 148.05 45.9162C148.865 46.197 149.273 46.7001 149.273 47.4255C149.273 47.9203 149.053 48.3231 148.611 48.634C148.174 48.9448 147.605 49.1003 146.907 49.1003C146.442 49.1003 146.027 49.0167 145.663 48.8496C145.299 48.6824 145.015 48.4551 144.811 48.1676C144.607 47.8802 144.505 47.5776 144.505 47.2601H146.084C146.091 47.5108 146.174 47.6946 146.335 47.8116C146.495 47.9253 146.701 47.9821 146.952 47.9821C147.182 47.9821 147.355 47.9353 147.468 47.8417C147.585 47.7481 147.644 47.6261 147.644 47.4757ZM151.851 49H150.156V43.5746H151.851V49ZM150.056 42.1756C150.056 41.9349 150.142 41.7377 150.316 41.5839C150.49 41.4302 150.716 41.3533 150.993 41.3533C151.271 41.3533 151.496 41.4302 151.67 41.5839C151.844 41.7377 151.931 41.9349 151.931 42.1756C151.931 42.4163 151.844 42.6135 151.67 42.7673C151.496 42.9211 151.271 42.998 150.993 42.998C150.716 42.998 150.49 42.9211 150.316 42.7673C150.142 42.6135 150.056 42.4163 150.056 42.1756ZM152.698 46.2472C152.698 45.699 152.788 45.2143 152.969 44.7931C153.149 44.3719 153.408 44.0476 153.746 43.8203C154.084 43.5896 154.476 43.4743 154.924 43.4743C155.489 43.4743 155.931 43.6649 156.248 44.0459L156.308 43.5746H157.843V48.7944C157.843 49.2724 157.731 49.687 157.507 50.0379C157.286 50.3923 156.965 50.6631 156.544 50.8503C156.123 51.0408 155.635 51.1361 155.08 51.1361C154.682 51.1361 154.296 51.0609 153.921 50.9104C153.55 50.76 153.266 50.5644 153.069 50.3238L153.776 49.3309C154.09 49.702 154.505 49.8875 155.02 49.8875C155.768 49.8875 156.143 49.5031 156.143 48.7342V48.5638C155.819 48.9214 155.409 49.1003 154.914 49.1003C154.252 49.1003 153.718 48.8479 153.31 48.3431C152.902 47.835 152.698 47.1564 152.698 46.3074V46.2472ZM154.393 46.3525C154.393 46.7971 154.476 47.1497 154.644 47.4105C154.811 47.6679 155.045 47.7966 155.346 47.7966C155.71 47.7966 155.976 47.6746 156.143 47.4305V45.1491C155.979 44.9017 155.717 44.778 155.356 44.778C155.055 44.778 154.819 44.9134 154.649 45.1842C154.478 45.4516 154.393 45.841 154.393 46.3525ZM160.355 43.5746L160.41 44.2114C160.784 43.72 161.301 43.4743 161.959 43.4743C162.524 43.4743 162.945 43.6431 163.223 43.9808C163.504 44.3184 163.649 44.8265 163.659 45.5051V49H161.964V45.5753C161.964 45.3012 161.909 45.1006 161.799 44.9736C161.689 44.8432 161.488 44.778 161.197 44.778C160.866 44.778 160.621 44.9084 160.46 45.1691V49H158.77V43.5746H160.355Z"
     fill="white"
     id="path1365" />
  <defs
     id="defs1388">
    <filter
       id="filter0_i"
       x="13.6914"
       y="13.6919"
       width="371.568"
       height="246.46"
       filterUnits="userSpaceOnUse"
       color-interpolation-filters="sRGB">
      <feFlood
         flood-opacity="0"
         result="BackgroundImageFix"
         id="feFlood1371" />
      <feBlend
         mode="normal"
         in="SourceGraphic"
         in2="BackgroundImageFix"
         result="shape"
         id="feBlend1373" />
      <feColorMatrix
         in="SourceAlpha"
         type="matrix"
         values="0 0 0 0 0 0 0 0 0 0 0 0 0 0 0 0 0 0 127 0"
         result="hardAlpha"
         id="feColorMatrix1375" />
      <feOffset
         id="feOffset1377" />
      <feGaussianBlur
         stdDeviation="2"
         id="feGaussianBlur1379" />
      <feComposite
         in2="hardAlpha"
         operator="arithmetic"
         k2="-1"
         k3="1"
         id="feComposite1381" />
      <feColorMatrix
         type="matrix"
         values="0 0 0 0 1 0 0 0 0 1 0 0 0 0 1 0 0 0 0.2 0"
         id="feColorMatrix1383" />
      <feBlend
         mode="normal"
         in2="shape"
         result="effect1_innerShadow"
         id="feBlend1385" />
    </filter>
  </defs>
</svg>
