<?xml version="1.0" encoding="UTF-8" standalone="no"?>
<svg
   width="1440"
   height="645"
   viewBox="0 0 1440 645"
   fill="none"
   version="1.1"
   id="svg2292"
   sodipodi:docname="wave-bg-2.svg"
   inkscape:version="1.1.2 (b8e25be8, 2022-02-05)"
   xmlns:inkscape="http://www.inkscape.org/namespaces/inkscape"
   xmlns:sodipodi="http://sodipodi.sourceforge.net/DTD/sodipodi-0.dtd"
   xmlns="http://www.w3.org/2000/svg"
   xmlns:svg="http://www.w3.org/2000/svg">
  <sodipodi:namedview
     id="namedview2294"
     pagecolor="#ffffff"
     bordercolor="#666666"
     borderopacity="1.0"
     inkscape:pageshadow="2"
     inkscape:pageopacity="0.0"
     inkscape:pagecheckerboard="0"
     showgrid="false"
     inkscape:zoom="0.47354936"
     inkscape:cx="664.13351"
     inkscape:cy="308.30999"
     inkscape:window-width="1312"
     inkscape:window-height="934"
     inkscape:window-x="0"
     inkscape:window-y="25"
     inkscape:window-maximized="0"
     inkscape:current-layer="layer1" />
  <defs
     id="defs2290">
    <linearGradient
       id="paint0_linear"
       x1="719.79"
       y1="1.69558e-06"
       x2="719.79"
       y2="641.762"
       gradientUnits="userSpaceOnUse"
       gradientTransform="matrix(1,0,0,0.76545689,0,151.28031)">
      <stop
         stop-color="#130C3E"
         id="stop2285" />
      <stop
         offset="1"
         stop-color="#1E1357"
         id="stop2287" />
    </linearGradient>
    <linearGradient
       id="paint0_linear-9"
       x1="719.407"
       y1="49.4848"
       x2="719.407"
       y2="335.485"
       gradientUnits="userSpaceOnUse">
      <stop
         stop-color="#176AB1"
         id="stop2483" />
      <stop
         offset="1"
         stop-color="#CBD8F1"
         id="stop2485" />
    </linearGradient>
    <linearGradient
       id="paint0_linear-8"
       x1="702.623"
       y1="-88.0755"
       x2="663.222"
       y2="221.307"
       gradientUnits="userSpaceOnUse">
      <stop
         stop-color="#61D2CC"
         stop-opacity="0.6"
         id="stop902" />
      <stop
         offset="1"
         stop-color="white"
         stop-opacity="0"
         id="stop904" />
    </linearGradient>
    <filter
       inkscape:label="Opacity"
       style="color-interpolation-filters:sRGB;"
       id="filter2550"
       x="0"
       y="0"
       width="1"
       height="1">
      <feColorMatrix
         values="1 0 0 0 0 0 1 0 0 0 0 0 1 0 0 0 0 0 752.541 -36.6972 "
         result="colormatrix"
         id="feColorMatrix2546" />
      <feComposite
         in2="colormatrix"
         operator="arithmetic"
         k2="0.332335"
         result="composite"
         id="feComposite2548" />
    </filter>
  </defs>
  <g
     inkscape:groupmode="layer"
     id="layer1"
     inkscape:label="Layer 1">
    <g
       style="fill:none;filter:url(#filter2550)"
       id="g2498"
       transform="matrix(0.99207612,-0.1027827,0.04211105,0.41134779,-15.834939,281.34837)">
      <path
         d="M 989.884,239.293 C 777.082,157.401 773.999,124.07 603.499,145.675 432.999,167.279 397.272,25.8397 231.884,7.29358 66.4957,-11.2525 -2.06374,9.11702 -81.1863,28.8977 c 0,87.1713 55,566.1023 55,566.1023 H 1520 l -57.12,-430.672 c 0,0 -259.8,157.008 -472.996,74.965 z"
         fill="url(#paint0_linear)"
         id="path2481"
         style="fill:url(#paint0_linear-9)" />
    </g>
  </g>
  <g
     inkscape:groupmode="layer"
     id="layer2"
     inkscape:label="Layer 2">
    <g
       style="fill:none"
       id="g917"
       transform="matrix(0.96598993,-0.2626755,0.2510993,0.95290325,1.9562188,404.34209)">
      <path
         d="m 1228.49,36.985 c -212.8,-81.8929 -387.893,-4.9796 -609.876,14 -221.982,18.9796 -208.612,-4.9539 -374,-23.5 C 79.2262,8.93887 -14.8774,107.033 -94,126.814 c 0,87.171 0,221.982 0,221.982 H 1482.19 L 1463.66,113.91 c 0,0 -21.98,5.118 -235.17,-76.925 z"
         fill="url(#paint0_linear)"
         id="path900"
         style="fill:url(#paint0_linear-8)" />
    </g>
    <path
       d="M 932.71156,333.95365 C 706.4462,322.16619 675.83124,326.72204 583.93222,375.40763 492.03219,424.0935 434.51258,435.09297 267.20955,458.39089 99.90649,481.68882 17.603668,518.10729 -57.003928,549.87506 -40.336655,613.16108 53.232506,968.44728 53.232506,968.44728 L 1560.6052,631.18906 1442.3734,198.58557 c 0,0 -282.9837,147.17792 -509.66184,135.36808 z"
       fill="url(#paint0_linear)"
       id="path2283"
       style="fill:#161643;fill-opacity:1;stroke-width:0.868759" />
  </g>
</svg>
