<?xml version="1.0" encoding="UTF-8" standalone="no"?>
<svg
   width="1440"
   height="645"
   viewBox="0 0 1440 645"
   fill="none"
   version="1.1"
   id="svg2292"
   sodipodi:docname="wave-bg-ligth.svg"
   inkscape:version="1.1.2 (b8e25be8, 2022-02-05)"
   xmlns:inkscape="http://www.inkscape.org/namespaces/inkscape"
   xmlns:sodipodi="http://sodipodi.sourceforge.net/DTD/sodipodi-0.dtd"
   xmlns:xlink="http://www.w3.org/1999/xlink"
   xmlns="http://www.w3.org/2000/svg"
   xmlns:svg="http://www.w3.org/2000/svg">
  <sodipodi:namedview
     id="namedview2294"
     pagecolor="#ffffff"
     bordercolor="#666666"
     borderopacity="1.0"
     inkscape:pageshadow="2"
     inkscape:pageopacity="0.0"
     inkscape:pagecheckerboard="0"
     showgrid="false"
     inkscape:zoom="0.47354936"
     inkscape:cx="664.13351"
     inkscape:cy="308.30999"
     inkscape:window-width="1312"
     inkscape:window-height="934"
     inkscape:window-x="0"
     inkscape:window-y="25"
     inkscape:window-maximized="0"
     inkscape:current-layer="layer2" />
  <defs
     id="defs2290">
    <linearGradient
       inkscape:collect="always"
       id="linearGradient5265">
      <stop
         style="stop-color:#06abff;stop-opacity:1;"
         offset="0"
         id="stop5261" />
      <stop
         style="stop-color:#06abff;stop-opacity:0;"
         offset="1"
         id="stop5263" />
    </linearGradient>
    <linearGradient
       id="paint0_linear"
       x1="719.79"
       y1="1.69558e-06"
       x2="719.79"
       y2="641.762"
       gradientUnits="userSpaceOnUse"
       gradientTransform="matrix(1,0,0,0.76545689,0,151.28031)">
      <stop
         stop-color="#130C3E"
         id="stop2285" />
      <stop
         offset="1"
         stop-color="#1E1357"
         id="stop2287" />
    </linearGradient>
    <linearGradient
       id="paint0_linear-9"
       x1="719.407"
       y1="49.4848"
       x2="719.407"
       y2="335.485"
       gradientUnits="userSpaceOnUse"
       gradientTransform="translate(18.714555,39.223123)">
      <stop
         stop-color="#176AB1"
         id="stop2483" />
      <stop
         offset="1"
         stop-color="#CBD8F1"
         id="stop2485" />
    </linearGradient>
    <linearGradient
       id="paint0_linear-8"
       x1="702.623"
       y1="-88.0755"
       x2="663.222"
       y2="221.307"
       gradientUnits="userSpaceOnUse">
      <stop
         stop-color="#61D2CC"
         stop-opacity="0.6"
         id="stop902" />
      <stop
         offset="1"
         stop-color="white"
         stop-opacity="0"
         id="stop904" />
    </linearGradient>
    <linearGradient
       inkscape:collect="always"
       xlink:href="#linearGradient5265"
       id="linearGradient5269"
       x1="-94"
       y1="174.39799"
       x2="1482.1899"
       y2="174.39799"
       gradientUnits="userSpaceOnUse" />
  </defs>
  <g
     inkscape:groupmode="layer"
     id="layer1"
     inkscape:label="Layer 1">
    <g
       style="fill:none"
       id="g2498"
       transform="matrix(0.97757968,0,0,0.81520572,29.224369,38.75715)">
      <path
         d="m 1008.5986,278.51612 c -212.80204,-81.892 -215.88504,-115.223 -386.38504,-93.618 -170.5,21.604 -206.227,-119.835297 -371.615,-138.381417 -165.388305,-18.54608 -233.947745,1.82344 -313.070305,21.60412 0,87.171297 55,566.102297 55,566.102297 H 1538.7146 l -57.12,-430.672 c 0,0 -259.8,157.008 -472.996,74.965 z"
         fill="url(#paint0_linear)"
         id="path2481"
         style="fill:url(#paint0_linear-9)" />
    </g>
  </g>
  <g
     inkscape:groupmode="layer"
     id="layer2"
     inkscape:label="Layer 2">
    <g
       style="fill:url(#linearGradient5269);fill-opacity:1"
       id="g917"
       transform="matrix(1,0,0,0.97107119,-29.961487,144.00224)">
      <path
         d="m 1228.49,36.985 c -212.8,-81.8929 -387.893,-4.9796 -609.876,14 -221.982,18.9796 -208.612,-4.9539 -374,-23.5 C 79.2262,8.93887 -14.8774,107.033 -94,126.814 c 0,87.171 0,221.982 0,221.982 H 1482.19 L 1463.66,113.91 c 0,0 -21.98,5.118 -235.17,-76.925 z"
         fill="url(#paint0_linear)"
         id="path900"
         style="fill:url(#linearGradient5269);fill-opacity:1" />
    </g>
    <path
       d="M 969.25963,225.15852 C 761.22872,165.29581 731.57091,163.09559 633.9498,190.07106 536.32771,217.0466 480.00739,215.25306 318.32745,201.69606 156.6475,188.13906 70.983657,205.4078 -6.3648914,219.86721 -6.3648914,284.14517 -6.3653802,645 -6.3653802,645 H 1481.6091 l -4.008,-440.30681 c 0,0 -299.9313,80.43808 -508.34147,20.46533 z"
       fill="url(#paint0_linear)"
       id="path2283"
       style="fill:#b2e2ed;fill-opacity:1;stroke-width:0.84534" />
  </g>
</svg>
